<?xml version="1.0" standalone="no"?>
<!DOCTYPE svg PUBLIC "-//W3C//DTD SVG 20010904//EN"
 "http://www.w3.org/TR/2001/REC-SVG-20010904/DTD/svg10.dtd">
<svg version="1.0" xmlns="http://www.w3.org/2000/svg"
 width="100.000000pt" height="100.000000pt" viewBox="0 0 100.000000 100.000000"
 preserveAspectRatio="xMidYMid meet">
<metadata>
Created by potrace 1.16, written by Peter Selinger 2001-2019
</metadata>
<g transform="translate(0.000000,100.000000) scale(0.100000,-0.100000)"
fill="#000000" stroke="none">
<path d="M160 920 l0 -40 -40 0 -40 0 0 -420 0 -420 420 0 420 0 0 340 0 340
-160 0 -160 0 0 80 0 80 -40 0 -40 0 0 40 0 40 -180 0 -180 0 0 -40z m320 -40
l0 -40 40 0 40 0 0 -380 0 -380 -90 0 -90 0 0 70 0 70 -40 0 -40 0 0 -70 0
-70 -90 0 -90 0 0 380 0 380 40 0 40 0 0 40 0 40 140 0 140 0 0 -40z m400
-500 l0 -300 -140 0 -140 0 0 300 0 300 140 0 140 0 0 -300z"/>
</g>
</svg>
