<?xml version="1.0" standalone="no"?>
<!DOCTYPE svg PUBLIC "-//W3C//DTD SVG 20010904//EN"
 "http://www.w3.org/TR/2001/REC-SVG-20010904/DTD/svg10.dtd">
<svg version="1.0" xmlns="http://www.w3.org/2000/svg"
 width="396.000000pt" height="512.000000pt" viewBox="0 0 396.000000 512.000000"
 preserveAspectRatio="xMidYMid meet">
<metadata>
Created by potrace 1.16, written by Peter Selinger 2001-2019
</metadata>
<g transform="translate(0.000000,512.000000) scale(0.100000,-0.100000)"
fill="#000000" stroke="none">
<path d="M2984 4829 c-53 -15 -117 -81 -152 -156 -40 -88 -54 -161 -46 -244
l6 -66 -35 -22 c-40 -24 -174 -61 -224 -61 -19 0 -32 -4 -28 -9 10 -17 -84
-24 -172 -12 -88 11 -164 44 -177 76 -5 13 -3 13 17 1 12 -8 46 -17 75 -21
l54 -7 -46 42 c-56 52 -86 112 -86 174 0 76 51 146 121 166 80 23 202 4 252
-39 16 -13 19 -13 27 -1 6 8 10 19 10 23 0 19 -109 112 -159 135 -49 23 -62
24 -143 18 -93 -6 -124 -16 -146 -48 -15 -20 -37 -25 -27 -5 4 6 -16 -12 -44
-41 -34 -35 -57 -72 -72 -113 l-23 -62 -13 45 c-7 26 -29 63 -50 85 -21 22
-31 30 -23 19 15 -19 14 -19 -15 1 -36 25 -71 63 -59 63 5 0 0 7 -10 15 -11 8
-25 15 -30 15 -6 -1 0 -7 14 -15 35 -20 24 -18 -35 5 -27 10 -43 20 -35 21 22
2 -30 17 -62 18 -18 1 -28 -4 -28 -13 0 -9 -9 -13 -25 -11 -65 7 -215 -99
-215 -151 0 -30 2 -30 48 0 50 33 121 50 176 42 34 -5 58 -18 96 -53 85 -76
95 -112 59 -206 -25 -66 -63 -107 -124 -136 -25 -12 -45 -23 -45 -25 0 -2 21
-2 47 0 45 5 163 65 163 84 0 4 7 10 15 14 12 4 13 2 6 -12 -17 -32 -66 -71
-116 -93 -98 -45 -432 -36 -533 13 -36 18 -41 24 -35 42 5 12 8 62 8 111 -1
214 -98 355 -246 355 -59 0 -122 -26 -159 -65 -33 -35 -39 -113 -12 -159 20
-35 20 -35 1 -41 -36 -12 -8 -25 52 -25 63 0 161 -32 226 -74 51 -33 38 -35
-24 -4 -128 62 -281 88 -356 59 -16 -6 -33 -9 -38 -5 -19 11 -113 -53 -173
-117 -106 -115 -143 -217 -133 -374 7 -108 30 -187 130 -431 173 -423 283
-872 317 -1299 26 -322 -3 -734 -75 -1059 -23 -109 -13 -98 -113 -125 -47 -13
-115 -68 -138 -112 -8 -16 -14 -55 -14 -88 0 -53 3 -62 27 -81 20 -16 38 -21
65 -18 l38 4 0 -88 c0 -225 117 -392 343 -491 64 -27 85 -31 187 -35 201 -7
350 52 407 162 15 30 15 152 -1 187 -9 21 29 29 128 29 159 -1 323 -100 302
-184 -4 -15 -22 -44 -41 -64 -33 -36 -35 -37 -104 -37 -67 0 -71 -1 -71 -23 0
-32 53 -62 111 -62 61 0 136 39 172 89 15 22 27 44 27 50 0 21 19 11 39 -22
11 -18 30 -42 43 -54 32 -30 126 -54 172 -43 47 10 86 36 86 56 0 13 -7 14
-39 9 -88 -15 -181 41 -181 108 0 66 74 139 174 171 56 18 158 21 220 5 l43
-11 -14 -41 c-36 -103 18 -211 137 -272 86 -44 156 -58 255 -52 169 10 308 70
405 174 104 111 150 229 150 383 l0 80 43 0 c52 0 93 34 103 85 8 45 -25 114
-74 155 -38 31 -128 70 -162 70 -10 0 -21 4 -24 8 -10 17 -66 307 -87 452 -30
207 -37 561 -15 775 32 314 36 346 61 463 64 296 132 527 228 767 101 254 127
343 134 470 5 92 3 106 -22 175 -33 89 -62 137 -123 202 -78 83 -209 148 -300
148 -18 0 -32 3 -30 8 48 93 46 142 -9 203 -49 54 -127 72 -209 48z m116 -109
c13 -8 10 -13 -14 -33 -26 -21 -28 -27 -25 -82 l4 -60 -60 -30 c-33 -17 -73
-39 -88 -49 -15 -10 -31 -15 -35 -11 -15 15 -4 121 18 173 17 39 33 59 64 77
43 26 108 33 136 15z m-2123 -50 c42 -25 74 -89 80 -161 9 -92 4 -95 -68 -49
-34 22 -66 40 -70 40 -4 0 -20 5 -35 10 -25 10 -26 12 -10 29 22 24 20 83 -4
113 -10 14 -16 28 -13 32 14 13 90 5 120 -14z m2348 -245 c65 -30 113 -66 147
-112 38 -50 27 -54 -23 -8 -60 54 -141 89 -191 82 -44 -6 -92 -43 -83 -65 3
-7 0 -10 -6 -7 -5 4 -26 -1 -46 -10 -50 -24 -117 -15 -152 19 l-26 27 25 20
c37 29 114 68 157 79 54 13 140 2 198 -25z m-1336 -16 c18 -53 100 -158 157
-200 30 -23 54 -43 54 -44 0 -2 -97 -2 -215 -1 -118 0 -215 2 -215 4 0 1 29
30 64 65 45 44 73 83 97 134 19 40 37 73 41 73 3 0 11 -14 17 -31z m-1140 -8
c74 -23 154 -68 148 -84 -7 -22 -70 -57 -103 -57 -48 0 -85 17 -121 55 -28 31
-38 35 -81 35 -57 0 -120 -30 -195 -92 -80 -67 -67 -33 19 51 66 63 91 80 135
93 73 22 126 22 198 -1z m2022 -147 c7 -9 36 -32 64 -50 l50 -34 -190 0 -190
1 85 33 c47 18 99 40 115 49 38 21 49 21 66 1z m-1614 -76 c24 -6 43 -14 43
-18 0 -10 -112 -16 -219 -12 l-81 4 51 47 52 47 56 -29 c30 -15 75 -33 98 -39z
m2081 16 c58 -25 102 -68 135 -129 16 -31 21 -57 20 -115 -1 -81 -15 -134 -81
-290 -84 -201 -191 -572 -227 -793 -9 -50 -20 -108 -25 -127 -5 -22 -8 242 -7
702 l1 738 35 24 c40 29 66 27 149 -10z m-2574 -26 c11 -10 23 -18 27 -18 3 0
7 -129 8 -287 1 -159 6 -425 11 -593 5 -168 9 -386 9 -485 l-1 -180 -24 135
c-51 283 -125 533 -268 914 -84 222 -92 312 -37 402 28 45 102 103 168 129 60
25 60 25 107 -17z m2203 -810 c-4 -348 -9 -1000 -12 -1448 -3 -448 -8 -888
-11 -976 l-6 -161 -934 -8 c-514 -4 -938 -5 -941 -2 -3 4 -11 165 -19 359 -7
194 -15 418 -19 498 -5 138 -11 408 -34 1575 -6 281 -13 568 -15 638 -4 95 -2
129 7 132 22 8 893 22 1446 23 l544 2 -6 -632z m-2103 -2033 c3 -143 9 -285
12 -315 l6 -55 -48 51 c-27 29 -59 55 -71 58 -13 4 -23 12 -23 17 0 6 18 99
39 207 22 108 45 238 50 287 6 50 12 95 12 100 6 43 17 -135 23 -350z m2315
89 c11 -66 29 -160 41 -208 11 -48 20 -90 20 -95 0 -4 -20 -21 -44 -36 -24
-15 -50 -38 -57 -51 -22 -41 -29 -26 -24 49 3 39 8 189 12 332 7 290 6 289 52
9z m-2184 -819 c114 -7 115 -7 100 -28 -19 -27 -19 -107 -1 -132 15 -21 80
-25 100 -5 6 6 11 36 11 65 0 42 3 55 15 55 31 0 38 -14 30 -63 -8 -54 -32
-92 -78 -123 -114 -78 -341 6 -408 150 -27 59 -33 146 -10 146 23 0 73 47 98
92 l23 41 3 -96 3 -95 114 -7z m2145 156 c14 -35 36 -56 70 -66 35 -11 41 -23
33 -80 -17 -143 -131 -246 -281 -254 -117 -5 -198 35 -212 105 -4 21 -11 51
-15 67 -6 23 -4 27 13 27 16 0 20 -9 25 -46 6 -55 25 -77 68 -77 63 0 89 75
50 139 l-19 32 45 6 c25 3 76 6 113 6 l67 0 7 46 c3 26 6 64 6 85 0 46 13 50
30 10z m-1010 -179 c-49 -33 -97 -82 -115 -116 -22 -40 -31 -44 -40 -18 -9 28
-63 82 -118 118 l-52 34 175 -1 c168 0 174 -1 150 -17z"/>
</g>
</svg>
