<?xml version="1.0" standalone="no"?>
<!DOCTYPE svg PUBLIC "-//W3C//DTD SVG 20010904//EN"
 "http://www.w3.org/TR/2001/REC-SVG-20010904/DTD/svg10.dtd">
<svg version="1.0" xmlns="http://www.w3.org/2000/svg"
 width="200.000000pt" height="200.000000pt" viewBox="0 0 200.000000 200.000000"
 preserveAspectRatio="xMidYMid meet">
<metadata>
Created by potrace 1.16, written by Peter Selinger 2001-2019
</metadata>
<g transform="translate(0.000000,200.000000) scale(0.100000,-0.100000)"
fill="#000000" stroke="none">
<path d="M425 1800 l100 -100 475 0 475 0 100 100 100 100 -675 0 -675 0 100
-100z"/>
<path d="M270 1000 l0 -845 100 100 100 100 0 645 0 645 -100 100 -100 100 0
-845z"/>
<path d="M1627 1742 l-97 -97 0 -645 0 -645 100 -100 100 -100 0 843 c0 463
-1 842 -3 842 -1 0 -46 -44 -100 -98z"/>
<path d="M425 200 l-100 -100 675 0 675 0 -100 100 -100 100 -475 0 -475 0
-100 -100z"/>
</g>
</svg>
