<?xml version="1.0" standalone="no"?>
<!DOCTYPE svg PUBLIC "-//W3C//DTD SVG 20010904//EN"
 "http://www.w3.org/TR/2001/REC-SVG-20010904/DTD/svg10.dtd">
<svg version="1.0" xmlns="http://www.w3.org/2000/svg"
 width="1500.000000pt" height="1500.000000pt" viewBox="0 0 1500.000000 1500.000000"
 preserveAspectRatio="xMidYMid meet">
<metadata>
Created by potrace 1.16, written by Peter Selinger 2001-2019
</metadata>
<g transform="translate(0.000000,1500.000000) scale(0.100000,-0.100000)"
fill="#000000" stroke="none">
<path d="M7560 13111 c-14 -21 -16 -31 -8 -39 9 -9 7 -17 -7 -32 -10 -11 -22
-17 -27 -14 -13 8 -108 -85 -108 -105 0 -21 -30 -50 -46 -44 -7 3 -31 -8 -51
-25 -21 -16 -48 -35 -61 -41 -18 -10 -21 -15 -12 -26 8 -10 6 -17 -12 -29 -19
-14 -24 -14 -36 -2 -12 12 -22 10 -69 -10 -85 -38 -211 -72 -335 -90 -90 -13
-158 -15 -338 -11 -316 8 -569 49 -1009 163 -434 113 -553 134 -768 134 -407
0 -743 -138 -1019 -419 l-70 -70 -37 43 c-88 106 -326 281 -502 370 -531 267
-1053 242 -1472 -72 -380 -284 -396 -753 -42 -1225 139 -186 362 -377 517
-444 l60 -25 -73 -69 c-204 -194 -335 -506 -335 -798 0 -243 72 -381 275 -531
365 -270 579 -531 646 -787 25 -99 27 -243 4 -338 -23 -98 -102 -255 -178
-355 -128 -168 -338 -352 -619 -538 -120 -81 -135 -94 -131 -115 4 -19 0 -26
-18 -30 -14 -4 -27 -1 -33 8 -9 12 -22 8 -75 -26 -35 -23 -66 -50 -68 -60 -3
-10 -11 -19 -18 -19 -15 0 -26 -25 -20 -42 6 -15 116 -88 132 -88 6 0 13 5 15
11 2 6 14 8 30 4 23 -6 26 -11 22 -33 -4 -24 2 -31 58 -66 234 -146 496 -358
618 -500 382 -444 353 -855 -89 -1296 -71 -70 -188 -173 -267 -232 -77 -59
-161 -129 -186 -156 -205 -228 -179 -677 61 -1044 59 -91 109 -147 174 -200
27 -21 42 -38 33 -38 -8 0 -49 -18 -90 -39 -242 -125 -494 -389 -626 -656 -87
-176 -105 -247 -105 -425 0 -127 3 -154 24 -219 84 -255 381 -490 725 -571
445 -106 965 42 1384 394 51 43 110 98 130 122 l36 44 85 -84 c164 -159 331
-263 532 -330 167 -56 266 -71 484 -70 232 1 305 12 635 99 554 146 866 198
1195 198 250 0 411 -26 587 -95 62 -24 81 -28 92 -19 19 16 58 -7 51 -29 -3
-11 14 -30 56 -59 33 -23 63 -40 66 -37 8 7 43 -23 43 -36 0 -20 95 -118 109
-113 7 3 22 -2 32 -11 14 -12 15 -20 7 -33 -8 -13 -6 -24 7 -44 9 -15 23 -27
30 -27 7 0 21 12 30 27 13 20 15 31 7 44 -8 13 -7 21 7 33 10 9 24 14 32 11
16 -6 113 100 104 114 -6 11 35 42 46 35 5 -3 36 14 69 38 41 28 58 47 55 58
-7 22 32 45 50 30 11 -9 32 -5 92 18 181 70 337 95 583 95 334 0 643 -51 1200
-198 332 -87 403 -99 635 -99 217 0 317 14 482 69 194 65 360 167 520 319 l99
94 28 -34 c46 -58 196 -183 311 -260 545 -362 1144 -396 1604 -90 334 222 440
541 305 916 -85 238 -288 504 -515 675 -89 67 -228 145 -258 145 -6 0 12 19
41 43 196 160 351 494 365 787 11 252 -68 422 -260 561 -354 256 -568 508
-653 769 -23 72 -27 102 -27 200 -1 137 15 205 78 336 114 237 365 485 733
723 122 80 132 88 128 113 -4 22 -1 27 22 33 16 4 28 2 30 -4 2 -6 8 -11 13
-11 19 0 129 76 135 92 3 10 18 18 37 20 24 2 33 8 35 25 4 26 -10 36 -228
173 -756 475 -1035 923 -859 1382 86 223 280 444 603 688 204 153 269 261 291
482 28 284 -150 715 -367 888 l-47 37 56 23 c182 75 426 293 574 514 325 483
265 932 -162 1209 -147 96 -282 151 -446 184 -120 23 -354 23 -483 -1 -342
-65 -696 -253 -937 -498 l-72 -73 -97 93 c-199 190 -415 305 -687 364 -87 19
-133 22 -312 22 -222 0 -305 -9 -491 -58 -519 -136 -658 -167 -919 -207 -199
-30 -548 -37 -703 -15 -329 49 -571 184 -737 414 -44 61 -54 69 -83 70 -24 0
-37 -7 -52 -27z m152 -154 c76 -98 154 -179 185 -192 18 -8 33 -21 33 -29 0
-8 26 -36 57 -62 48 -38 59 -44 67 -31 16 25 59 0 51 -30 -4 -19 2 -28 42 -54
80 -51 263 -135 363 -167 205 -65 376 -87 615 -79 237 8 416 41 700 130 711
224 1165 88 1591 -474 78 -103 210 -302 284 -427 44 -74 67 -88 63 -36 -1 16
-5 65 -9 110 -25 308 227 713 560 899 84 47 225 92 325 104 262 33 585 -93
705 -273 103 -155 110 -337 22 -545 -90 -213 -295 -424 -521 -538 -163 -83
-359 -127 -535 -121 -87 2 -105 0 -108 -12 -1 -10 23 -26 75 -49 420 -183 690
-412 749 -635 16 -61 18 -165 3 -221 -48 -186 -153 -343 -451 -677 -296 -333
-380 -450 -429 -596 -19 -57 -21 -80 -16 -196 15 -400 229 -735 642 -1009 136
-90 365 -198 533 -252 81 -26 154 -50 162 -53 8 -2 -21 -12 -66 -22 -111 -25
-248 -72 -379 -130 -601 -266 -945 -682 -972 -1175 -12 -227 59 -364 368 -709
294 -327 389 -448 461 -589 110 -211 108 -387 -5 -559 -105 -158 -382 -352
-684 -481 -44 -18 -63 -32 -63 -44 0 -16 10 -18 106 -15 311 11 609 -112 840
-344 168 -170 273 -392 274 -579 0 -238 -141 -410 -415 -508 -169 -60 -367
-63 -535 -8 -219 71 -415 225 -556 437 -132 198 -195 434 -160 594 7 36 12 68
9 73 -11 18 -31 2 -62 -50 -311 -526 -584 -817 -881 -937 -252 -103 -578 -103
-916 -3 -279 84 -342 100 -463 124 -124 24 -158 27 -381 27 -216 1 -258 -2
-356 -21 -335 -68 -617 -218 -853 -454 -80 -80 -192 -219 -213 -266 -10 -19
-15 -15 -61 55 -29 44 -108 134 -181 208 -203 203 -405 326 -666 408 -204 63
-266 71 -540 70 -223 0 -257 -3 -380 -27 -139 -27 -221 -49 -420 -110 -387
-118 -712 -119 -983 -2 -278 121 -558 419 -837 893 -36 60 -60 91 -70 89 -16
-3 -16 -5 -1 -106 20 -131 -16 -289 -105 -461 -134 -257 -349 -448 -606 -539
-102 -36 -104 -36 -263 -35 -148 0 -166 2 -245 28 -300 99 -449 271 -450 517
0 196 101 409 280 589 226 227 526 348 834 338 94 -3 106 -1 106 14 0 11 -21
26 -62 44 -359 158 -632 363 -720 541 -47 95 -64 191 -48 280 35 205 147 375
529 799 331 370 400 510 373 762 -15 144 -44 247 -101 368 -138 291 -379 518
-743 704 -165 85 -394 170 -513 192 -11 2 23 14 75 27 370 92 739 298 980 547
217 225 319 447 345 754 18 203 -67 368 -355 690 -141 158 -275 312 -322 371
-64 80 -157 231 -188 306 -147 353 50 643 624 918 105 51 166 86 166 95 0 13
-24 15 -153 16 -129 1 -167 5 -250 27 -327 87 -598 301 -737 582 -58 118 -82
210 -81 320 0 144 47 252 153 351 75 69 150 112 274 153 323 108 657 18 924
-249 148 -147 258 -337 301 -516 20 -84 22 -185 7 -314 -7 -55 28 -19 111 115
176 284 289 435 436 580 367 363 770 438 1375 254 323 -99 484 -128 730 -136
196 -6 346 9 511 52 342 87 665 301 882 583 26 33 47 63 47 66 0 3 14 26 32
50 l31 45 33 -55 c18 -30 48 -74 66 -97z"/>
</g>
</svg>
