<?xml version="1.0" standalone="no"?>
<!DOCTYPE svg PUBLIC "-//W3C//DTD SVG 20010904//EN"
 "http://www.w3.org/TR/2001/REC-SVG-20010904/DTD/svg10.dtd">
<svg version="1.0" xmlns="http://www.w3.org/2000/svg"
 width="900.000000pt" height="940.000000pt" viewBox="0 0 900.000000 940.000000"
 preserveAspectRatio="xMidYMid meet">
<metadata>
Created by potrace 1.16, written by Peter Selinger 2001-2019
</metadata>
<g transform="translate(0.000000,940.000000) scale(0.100000,-0.100000)"
fill="#000000" stroke="none">
<path d="M4386 9353 c-11 -63 -17 -75 -32 -69 -10 4 -14 -3 -14 -23 0 -73 -33
-80 -93 -20 -37 37 -42 39 -53 24 -12 -16 -18 -14 -81 19 -100 54 -109 47 -38
-32 28 -31 43 -56 39 -65 -4 -10 10 -24 45 -44 28 -15 51 -31 51 -35 0 -5 -16
-8 -36 -8 -30 0 -34 -3 -29 -19 4 -14 -1 -20 -22 -26 -35 -8 -73 -32 -73 -45
0 -6 27 -10 60 -10 48 0 60 -3 60 -16 0 -11 5 -14 18 -9 80 33 102 37 117 22
13 -13 12 -21 -5 -71 -16 -48 -17 -57 -4 -64 8 -5 17 -30 21 -60 3 -29 9 -52
14 -52 4 0 16 25 25 55 12 38 22 54 33 53 8 -2 17 7 20 19 7 25 52 63 75 63
10 0 13 6 9 18 -6 15 -5 15 10 3 9 -7 17 -19 17 -26 0 -7 6 -15 14 -18 8 -3
22 -23 32 -44 17 -36 59 -82 77 -83 5 0 22 9 38 21 19 13 36 18 51 14 l23 -7
-23 17 c-19 14 -21 22 -16 56 4 21 5 39 3 40 -75 10 -95 9 -115 -2 -22 -11
-28 -8 -78 37 -30 27 -54 56 -55 64 0 9 21 25 52 39 28 13 46 25 40 28 -21 8
-15 23 23 70 20 24 34 46 31 49 -3 3 -24 -4 -48 -17 -30 -15 -44 -18 -47 -10
-2 7 -15 0 -30 -16 -30 -33 -36 -22 -23 38 8 33 7 47 -3 59 -7 8 -16 29 -20
45 -8 35 -33 75 -45 75 -5 0 -12 -17 -15 -37z"/>
<path d="M4956 9292 c-3 -5 -8 -28 -12 -50 -7 -43 -12 -49 -29 -33 -14 12 -75
-7 -75 -24 0 -7 10 -21 22 -29 18 -13 19 -18 8 -31 -11 -13 -10 -19 5 -35 23
-26 43 -25 72 2 25 23 29 15 13 -29 l-10 -28 24 26 c22 25 24 26 39 10 9 -9
24 -23 34 -31 16 -14 16 -15 -12 -20 -25 -4 -30 -11 -40 -58 -11 -47 -10 -55
6 -76 11 -13 19 -29 19 -35 0 -18 -19 -13 -32 9 -17 26 -25 25 -32 -5 -5 -18
-13 -25 -31 -25 -14 0 -29 -8 -36 -21 -9 -17 -17 -20 -45 -14 -26 4 -34 2 -34
-8 0 -10 -8 -13 -26 -9 -17 3 -32 -2 -48 -17 l-24 -22 -43 20 c-23 12 -51 21
-60 21 -10 0 -19 6 -22 13 -2 6 -8 8 -13 4 -5 -5 2 -17 15 -29 21 -16 23 -22
13 -36 -7 -9 -15 -24 -18 -33 -4 -12 -20 -16 -63 -18 -53 -1 -59 1 -69 24 -8
16 -20 25 -34 25 -29 -1 -62 -25 -53 -39 4 -8 -56 -11 -199 -11 -173 0 -206 2
-206 14 0 10 -16 17 -45 21 -36 6 -52 3 -80 -14 -34 -20 -49 -21 -304 -21
l-268 1 -10 34 c-9 28 -8 35 3 35 19 0 18 20 -2 48 -23 33 -12 37 35 13 44
-23 68 -26 73 -11 2 6 25 6 66 0 39 -7 69 -7 79 -1 14 7 7 14 -40 37 -39 19
-56 33 -52 42 4 10 0 13 -13 10 -15 -4 -19 0 -18 16 1 18 -6 22 -44 26 -47 6
-90 25 -90 39 0 13 42 63 48 57 3 -3 -3 -15 -13 -26 -18 -19 -17 -20 3 -20 25
0 72 20 72 31 0 4 15 13 34 20 l35 13 -26 13 c-34 17 -58 16 -78 -3 -11 -11
-20 -13 -26 -7 -6 6 3 23 26 48 19 22 35 43 35 47 0 12 -54 10 -87 -3 -15 -7
-38 -11 -50 -11 -14 1 -32 -10 -49 -33 -34 -45 -48 -45 -41 -1 4 27 2 34 -8
30 -10 -4 -15 6 -17 40 -2 26 -7 47 -13 47 -5 0 -17 -23 -26 -53 -12 -38 -21
-52 -33 -50 -18 3 -19 -7 -7 -60 5 -22 5 -38 0 -38 -5 0 -9 -4 -9 -10 0 -5 7
-10 15 -10 8 0 15 -4 15 -10 0 -5 -18 -3 -40 5 -59 21 -140 30 -140 16 0 -6 9
-11 19 -11 31 0 151 -40 151 -50 0 -5 -17 -18 -37 -29 -47 -23 -86 -74 -71
-89 7 -7 0 -24 -26 -55 -20 -24 -33 -47 -30 -50 4 -3 27 5 51 19 25 14 53 22
63 19 13 -4 28 8 55 45 20 27 41 50 46 50 12 0 36 -39 43 -70 5 -21 1 -28 -30
-43 -26 -13 -40 -15 -47 -8 -6 6 -20 11 -31 11 -20 0 -20 -1 3 -19 39 -30 18
-41 -79 -41 -87 0 -89 0 -101 28 -18 40 -74 74 -107 65 -15 -4 -32 -6 -39 -5
-18 4 -46 -45 -40 -68 5 -19 0 -20 -69 -20 -41 0 -74 3 -74 8 1 10 41 38 70
47 14 4 52 30 85 57 54 46 62 49 97 44 46 -8 83 13 93 52 9 35 -15 52 -72 52
-47 0 -68 -22 -58 -62 5 -19 -5 -31 -61 -71 -37 -27 -77 -52 -89 -57 -13 -5
-26 -14 -30 -19 -3 -6 -13 -11 -22 -11 -12 0 -12 6 6 35 11 19 18 35 14 35 -9
0 -43 -42 -59 -72 -8 -16 -22 -29 -32 -29 -72 -6 -94 -4 -114 10 -25 18 -34
46 -18 56 5 3 10 22 10 41 0 29 -5 36 -37 51 -48 23 -55 50 -16 58 15 4 40 13
55 21 14 8 42 14 62 14 29 0 36 4 36 20 0 32 1 34 18 54 14 15 14 17 2 15 -18
-4 -60 18 -60 31 0 5 12 13 26 16 28 7 44 38 44 88 0 26 5 35 23 40 18 5 20 8
7 16 -36 24 -102 -8 -114 -55 -7 -28 -21 -33 -30 -10 -12 32 -26 14 -20 -26 4
-26 2 -49 -7 -65 -12 -23 -11 -27 9 -42 12 -10 23 -28 24 -41 2 -18 -5 -28
-36 -44 l-39 -21 -18 22 c-22 27 -36 28 -44 2 -7 -23 -10 -23 -83 -20 -28 1
-52 -2 -52 -7 0 -5 16 -7 35 -5 46 5 73 -4 57 -20 -16 -16 -15 -43 2 -58 8 -6
24 -30 35 -53 12 -24 35 -50 53 -60 39 -22 23 -39 -26 -26 -17 4 -43 11 -58
14 -30 6 -38 25 -11 25 12 0 14 3 6 11 -7 7 -17 8 -29 1 -11 -5 -53 -10 -94
-10 -65 0 -80 4 -105 24 -27 22 -28 26 -12 35 26 16 22 65 -8 85 -23 15 -27
15 -50 0 -14 -9 -25 -12 -25 -7 0 5 -11 12 -25 15 -40 10 -29 26 18 27 40 1
40 1 13 9 -16 5 -36 5 -44 1 -9 -5 -27 -5 -42 -1 -39 11 -52 -1 -56 -53 -2
-35 1 -49 12 -55 12 -7 14 -13 6 -28 -6 -10 -16 -34 -23 -53 l-12 -33 -15 28
c-22 42 -24 155 -3 172 14 12 14 12 -6 7 -15 -4 -23 -1 -27 12 -8 28 -6 143 3
201 4 28 4 52 0 52 -11 0 -22 -83 -22 -165 0 -45 -5 -78 -15 -92 -12 -20 -12
-23 0 -23 20 0 37 -40 31 -72 -3 -14 0 -34 5 -44 5 -11 13 -37 16 -59 l6 -40
-66 -29 c-82 -37 -105 -55 -153 -120 -38 -50 -69 -68 -143 -83 -16 -3 -28 -10
-28 -17 -1 -6 -8 1 -16 17 -8 15 -21 27 -30 27 -8 0 -19 12 -24 26 -9 23 -13
25 -53 19 -29 -5 -56 -1 -85 10 -46 19 -50 26 -27 45 8 7 33 49 56 94 44 87
70 122 103 132 11 4 32 15 46 25 14 9 39 20 56 24 28 5 35 2 54 -24 14 -20 30
-31 46 -31 22 0 23 2 12 20 -19 30 3 44 67 43 31 -1 68 5 83 13 25 12 19 13
-58 8 -47 -4 -91 -11 -98 -17 -10 -8 -20 -3 -40 17 -18 18 -23 29 -16 34 15 9
30 122 16 122 -22 0 -72 -59 -72 -84 0 -22 -4 -26 -30 -26 -17 0 -40 9 -52 20
-29 27 -34 25 -42 -11 -12 -63 -8 -77 22 -75 40 2 42 -17 3 -36 -40 -20 -81
-57 -81 -73 0 -7 -9 -23 -19 -37 -11 -13 -23 -36 -26 -51 -4 -14 -22 -43 -40
-64 -30 -34 -36 -37 -54 -25 -25 14 -31 15 -31 3 0 -5 13 -14 30 -19 43 -16
49 -57 24 -186 -5 -29 -4 -37 4 -32 7 4 12 14 12 22 0 9 7 22 15 30 17 18 20
34 5 34 -5 0 -10 15 -10 34 0 67 21 84 55 45 19 -20 18 -20 -10 -45 -26 -22
-27 -24 -7 -19 20 6 22 3 22 -29 0 -34 1 -35 35 -29 38 6 51 -15 15 -24 -11
-3 -20 -9 -20 -14 0 -11 -56 -93 -72 -106 -13 -11 -57 -13 -60 -3 -3 12 14 50
22 50 5 0 17 11 26 26 13 19 14 28 5 37 -8 8 -11 7 -11 -6 0 -9 -7 -17 -15
-17 -8 0 -15 -7 -15 -16 0 -8 -11 -30 -25 -48 -15 -20 -23 -40 -19 -50 5 -12
1 -16 -17 -14 -13 1 -36 -6 -51 -16 -23 -15 -25 -21 -18 -42 5 -13 7 -24 3
-24 -3 0 2 -8 11 -19 9 -10 16 -24 14 -31 -2 -7 13 -24 32 -37 40 -28 45 -47
13 -51 -13 -2 -32 -17 -43 -33 -12 -16 -27 -29 -35 -29 -16 0 -27 -42 -19 -74
4 -18 1 -27 -16 -36 -16 -8 -19 -16 -14 -33 4 -12 8 -33 8 -47 1 -14 4 -24 8
-22 4 1 15 5 24 9 24 9 38 -11 24 -37 -7 -13 -14 -35 -15 -49 -5 -39 -10 -60
-18 -67 -4 -4 -7 -13 -7 -21 0 -7 -22 -34 -48 -60 -27 -27 -56 -59 -65 -72
-20 -30 -26 -25 -34 25 -8 50 -39 124 -53 124 -5 0 -10 -4 -10 -10 0 -22 -28
-7 -75 40 -74 75 -94 67 -50 -20 29 -58 30 -60 10 -60 -21 0 -19 -17 5 -30 23
-13 43 -47 35 -60 -4 -6 -17 -4 -35 5 -45 23 -109 30 -115 12 -4 -8 -24 -18
-47 -21 -51 -8 -121 -43 -115 -59 2 -6 36 -20 75 -30 64 -18 71 -22 66 -41 -4
-19 0 -21 36 -23 90 -3 95 -54 13 -131 -51 -49 -55 -55 -40 -67 25 -18 22 -28
-30 -126 -25 -49 -43 -92 -39 -96 9 -10 44 13 106 70 42 38 55 45 66 36 18
-14 18 -14 71 69 l42 67 1 -42 c0 -59 8 -74 35 -67 19 5 23 1 28 -33 4 -21 16
-54 28 -73 20 -33 22 -33 36 -15 10 14 13 39 11 85 -2 52 0 65 12 66 29 2 30
4 15 35 -19 35 -32 163 -19 172 5 3 40 -8 78 -24 78 -33 85 -34 100 -14 7 9
38 17 84 21 45 4 71 11 69 18 -3 9 -86 47 -130 60 -15 4 -17 8 -8 24 10 18 6
22 -39 37 -52 17 -58 23 -39 42 7 7 7 27 0 64 -9 47 -8 57 9 80 14 19 16 29 8
37 -8 8 -8 18 0 37 7 14 12 39 12 55 0 16 5 32 10 35 6 3 10 14 10 24 0 15 8
18 46 16 39 -1 51 3 75 26 16 16 29 33 29 39 0 6 7 22 16 36 22 32 13 132 -12
151 -9 7 -14 19 -10 28 10 26 44 0 55 -43 13 -46 45 -75 83 -74 15 0 30 -4 33
-9 4 -5 17 -6 31 -3 18 5 24 2 24 -10 0 -25 36 -91 65 -120 20 -20 25 -35 25
-74 0 -46 -2 -49 -36 -65 -40 -19 -37 -37 7 -37 l29 0 0 -824 c0 -870 2 -838
-45 -848 -11 -2 -19 -10 -18 -16 4 -17 -12 -15 -27 3 -8 9 -10 28 -6 49 4 20
2 37 -4 41 -5 3 -10 -3 -10 -14 0 -30 -17 -34 -24 -6 -8 31 -53 62 -67 48 -8
-8 -6 -22 6 -47 17 -35 17 -38 0 -56 -10 -11 -23 -20 -29 -20 -7 0 -20 -17
-29 -37 -16 -36 -16 -39 0 -51 9 -6 34 -12 55 -12 34 0 38 -2 29 -18 -11 -20
-3 -74 13 -84 6 -5 21 4 34 20 16 18 26 23 29 15 8 -22 32 -14 47 15 14 25 13
29 -12 55 -27 28 -21 34 22 17 31 -11 33 -7 7 17 -19 18 -19 19 5 48 l24 30 0
-292 0 -293 -43 5 -42 5 25 -21 24 -21 -22 -16 c-13 -11 -25 -35 -30 -63 -6
-31 -25 -67 -60 -114 -55 -72 -62 -94 -37 -115 12 -10 14 -22 9 -44 -8 -34 -8
-35 0 -88 4 -20 2 -40 -4 -43 -5 -3 -10 -16 -10 -28 1 -21 1 -21 15 -4 13 18
14 18 23 0 14 -26 19 -107 7 -112 -5 -2 -15 6 -21 18 l-11 22 -7 -23 c-10 -38
-7 -46 21 -60 57 -27 46 -140 -16 -172 -30 -16 -59 -46 -44 -46 5 0 18 7 30
15 29 20 40 1 13 -22 -11 -10 -20 -24 -20 -31 0 -8 -9 -27 -21 -44 -12 -16
-19 -31 -16 -34 6 -6 57 62 57 78 1 14 49 73 55 66 2 -2 7 -36 10 -76 l7 -72
-30 6 c-33 7 -83 -19 -77 -39 2 -7 9 -38 15 -69 12 -59 20 -68 92 -92 11 -3
18 -15 18 -30 0 -13 7 -27 15 -30 13 -5 15 0 9 30 -5 29 -3 38 14 50 11 8 22
24 24 36 2 12 9 23 16 26 9 3 12 -67 12 -327 l0 -331 -25 0 c-16 0 -25 6 -25
15 0 14 -3 14 -25 -1 -42 -27 -49 -6 -11 37 30 32 35 44 30 69 -4 19 -2 30 5
30 14 0 14 60 1 80 -9 12 -17 8 -50 -28 -22 -24 -43 -41 -48 -38 -5 3 -14 -5
-20 -19 -16 -34 -46 -49 -62 -30 -12 14 -10 42 5 78 4 10 3 17 -3 17 -6 0 -14
-9 -17 -20 -8 -24 -25 -17 -25 11 0 15 -5 18 -23 14 -20 -5 -30 3 -67 54 -48
65 -66 68 -49 8 5 -21 7 -46 4 -57 -3 -10 -2 -21 4 -24 5 -3 7 -14 5 -24 -3
-9 8 -37 25 -62 33 -49 33 -57 3 -41 -30 16 -52 13 -52 -5 0 -12 -6 -15 -24
-10 -32 8 -88 -4 -83 -18 2 -6 24 -18 48 -28 30 -11 43 -21 41 -32 -2 -12 5
-16 25 -16 35 0 101 -18 108 -29 3 -5 -15 -31 -40 -58 -32 -36 -41 -53 -33
-61 8 -8 6 -22 -6 -52 -28 -70 -20 -79 29 -30 24 24 48 41 51 37 4 -4 13 -2
21 4 7 7 32 14 56 16 32 2 45 -1 55 -14 12 -16 13 -15 7 9 -4 16 -3 28 3 28 5
0 12 -14 16 -31 5 -28 32 -66 40 -58 2 2 7 15 11 29 7 21 6 23 -7 12 -13 -10
-17 -5 -27 35 -7 27 -19 61 -27 76 -20 40 -18 48 9 38 51 -19 130 -7 96 15 -8
4 -4 11 12 20 13 7 27 13 32 14 4 0 6 -89 6 -197 -1 -109 -3 -190 -6 -181 -4
16 -37 36 -85 52 -10 3 -15 11 -12 19 3 8 -3 22 -12 32 -22 22 -30 5 -13 -26
10 -20 8 -25 -15 -44 -14 -11 -26 -29 -26 -38 0 -10 -7 -20 -15 -23 -20 -8
-19 -28 1 -45 14 -12 14 -14 -5 -21 -26 -9 -28 -32 -2 -23 11 3 22 1 25 -4 10
-15 -12 -23 -33 -11 -13 7 -22 7 -26 0 -3 -5 -15 -10 -26 -10 -20 0 -19 -2 5
-31 14 -17 26 -35 26 -40 0 -5 12 -9 28 -9 34 -1 93 -46 74 -58 -9 -6 -8 -13
6 -28 12 -13 18 -34 17 -69 0 -55 5 -53 -79 -35 -38 8 -52 7 -58 -2 -27 -41
-20 -116 12 -136 18 -11 25 -9 58 18 43 36 77 41 69 10 -3 -12 6 -61 19 -110
19 -70 22 -94 14 -111 -8 -15 -8 -24 0 -34 17 -20 4 -35 -31 -35 -26 0 -29 -3
-29 -30 0 -20 -5 -30 -15 -30 -9 0 -18 -8 -22 -17 -3 -10 -13 -26 -21 -36 -14
-16 -13 -22 5 -60 24 -48 24 -78 0 -105 -9 -10 -17 -24 -17 -30 0 -7 -7 -12
-16 -12 -11 0 -14 -5 -10 -16 4 -9 -4 -28 -19 -46 -14 -16 -30 -50 -36 -74
-11 -42 -29 -61 -29 -30 0 28 -22 28 -45 0 -19 -24 -21 -32 -12 -61 8 -26 15
-33 29 -30 23 6 25 -35 3 -53 -8 -7 -15 -26 -15 -42 0 -28 -1 -28 -21 -14 -13
9 -33 13 -48 10 -20 -4 -33 1 -53 21 -24 24 -29 39 -42 135 -2 14 -7 33 -11
43 -4 10 -5 46 -2 80 5 54 3 68 -19 105 -37 63 -62 52 -28 -13 9 -18 15 -53
14 -90 -1 -84 0 -97 10 -120 5 -11 16 -47 24 -80 16 -66 9 -88 -24 -67 -19 12
-37 1 -26 -17 3 -4 1 -22 -4 -40 -7 -26 -6 -33 11 -42 15 -7 20 -19 18 -42 -3
-54 0 -65 23 -70 13 -4 28 -16 33 -29 6 -12 21 -25 35 -28 34 -8 31 -24 -10
-52 -19 -13 -35 -30 -36 -38 0 -8 -5 -28 -12 -43 -7 -16 -12 -34 -12 -42 0
-22 51 -56 73 -49 15 5 19 3 14 -9 -3 -9 5 -32 19 -52 14 -22 26 -56 29 -83 2
-26 7 -77 11 -115 7 -74 0 -91 -42 -101 -20 -5 -33 2 -75 44 l-50 50 -30 -17
c-30 -18 -36 -31 -21 -49 5 -5 15 -29 22 -53 8 -24 20 -45 27 -48 8 -3 33 7
56 23 23 16 46 27 50 26 4 -1 17 3 28 9 18 9 26 6 50 -17 16 -15 34 -43 40
-63 7 -20 20 -47 30 -60 11 -13 19 -29 19 -36 0 -17 49 -58 88 -74 41 -17 36
-37 -8 -34 l-32 1 6 -45 c8 -62 13 -66 46 -43 15 11 40 20 54 20 21 0 26 -5
26 -26 0 -25 50 -84 72 -84 15 0 3 111 -13 121 -23 14 32 64 57 51 11 -5 55
-12 99 -16 73 -5 78 -5 53 8 -15 8 -52 14 -83 13 -64 -1 -86 13 -67 43 11 18
10 20 -12 20 -16 0 -32 -11 -46 -31 -19 -26 -26 -29 -54 -23 -17 3 -42 14 -56
24 -14 10 -34 20 -46 24 -33 10 -59 44 -103 132 -23 45 -48 87 -56 94 -20 17
-19 25 7 38 17 8 19 11 7 11 -9 1 -20 8 -23 17 -8 20 -8 84 0 84 3 0 19 -14
36 -31 23 -23 28 -33 19 -42 -19 -19 -13 -22 54 -24 58 -1 65 1 65 18 0 12 10
23 26 29 14 6 28 19 31 30 4 13 9 17 17 12 6 -5 30 -14 54 -21 24 -7 45 -17
47 -24 2 -7 6 -45 9 -86 5 -58 13 -86 38 -129 44 -78 93 -129 150 -158 47 -24
62 -44 33 -44 -14 0 -14 -3 -1 -23 10 -15 15 -49 15 -103 -1 -90 8 -151 23
-160 6 -4 8 2 4 14 -11 33 -14 225 -4 244 5 10 15 15 26 12 14 -5 14 -3 -3 10
-19 16 -19 16 5 12 14 -2 29 -5 33 -5 5 -1 6 -5 2 -10 -9 -15 27 -29 55 -21
14 4 32 3 41 -1 9 -4 29 -4 45 1 27 8 27 8 -13 9 -24 1 -43 6 -43 11 0 6 70
10 191 10 137 0 188 -3 183 -11 -4 -7 -24 -9 -50 -6 -26 3 -44 0 -44 -5 0 -6
24 -9 61 -6 56 4 62 3 72 -19 13 -28 28 -29 45 -3 9 16 19 19 40 14 62 -15 75
-59 29 -96 -19 -15 -20 -19 -8 -42 8 -15 12 -39 8 -60 -6 -40 4 -54 24 -30 11
14 15 12 28 -16 21 -41 60 -65 95 -56 31 8 35 26 6 26 -15 0 -20 7 -20 29 0
53 -12 91 -29 91 -9 0 -23 5 -31 10 -13 9 -11 13 9 29 14 10 32 16 40 13 14
-5 14 -4 1 12 -8 11 -15 24 -16 30 0 6 -2 19 -2 29 -2 13 -11 17 -40 17 -21 0
-47 7 -58 15 -10 8 -29 15 -41 15 -12 0 -25 4 -28 10 -10 15 241 10 262 -5 16
-12 16 -15 2 -32 -31 -36 -30 -41 9 -41 24 0 45 7 60 21 29 27 28 43 -5 55
-25 9 -22 11 25 11 33 1 51 -3 47 -9 -8 -13 11 -13 35 0 14 8 21 5 34 -15 11
-17 26 -25 46 -25 17 0 30 -5 30 -10 0 -6 16 -27 36 -47 34 -34 38 -35 72 -25
19 6 39 9 43 6 14 -8 40 43 37 73 -3 28 -3 28 47 25 28 -1 61 -5 75 -8 24 -6
25 -6 5 -20 -17 -13 -18 -16 -5 -24 13 -8 13 -14 -3 -41 -17 -31 -17 -32 0
-18 10 8 22 20 26 27 12 18 27 5 27 -24 0 -27 25 -43 43 -25 8 8 15 7 28 -5
15 -14 18 -13 32 6 17 25 34 19 47 -16 5 -13 15 -24 22 -24 7 0 25 -6 40 -14
40 -21 124 7 89 28 -5 4 -19 27 -31 52 -13 25 -33 49 -45 54 -52 20 -36 48 18
32 17 -6 45 -13 62 -17 27 -6 28 -8 13 -19 -14 -11 -2 -12 71 -10 76 2 97 7
149 33 42 21 76 31 107 31 28 0 52 6 61 15 13 13 60 15 294 15 157 0 290 -4
304 -10 18 -6 34 -6 51 2 14 6 28 9 31 5 6 -6 -39 -90 -65 -120 -16 -19 -99
-64 -142 -77 -29 -9 -59 4 -59 24 0 15 -21 26 -52 26 -17 0 -18 -3 -8 -15 7
-8 10 -21 7 -28 -7 -18 -63 -30 -85 -18 -19 9 -42 4 -42 -10 0 -13 97 -11 122
2 27 14 75 -26 56 -48 -6 -8 -13 -39 -15 -69 l-4 -55 30 15 c35 18 42 28 51
70 5 27 9 31 35 28 17 -2 37 -10 46 -18 24 -22 36 -17 43 17 12 59 8 70 -18
63 -14 -3 -29 -3 -35 0 -15 10 -2 34 22 42 47 15 90 63 127 143 10 22 12 23
27 9 14 -15 14 -19 -6 -46 l-21 -31 47 4 c35 3 52 10 65 27 24 31 23 35 -12
43 -54 12 -43 25 21 25 56 0 60 -1 48 -17 -13 -15 -11 -16 16 -9 16 4 32 11
35 16 7 12 80 -12 80 -26 0 -6 7 -25 15 -42 16 -30 24 -34 141 -57 17 -4 25 3
37 28 9 18 13 43 10 56 -5 21 -4 22 48 16 30 -3 64 -8 77 -11 l23 -5 -23 -19
c-19 -16 -20 -19 -5 -20 21 0 21 -9 2 -34 -8 -11 -15 -24 -15 -28 0 -12 32 21
53 55 18 28 75 58 92 48 6 -3 18 -4 28 -2 21 3 57 -25 57 -46 0 -8 11 -13 29
-13 35 0 49 16 21 23 -22 6 -28 37 -7 37 22 -1 106 -25 114 -33 4 -5 1 -12 -7
-17 -12 -8 -10 -10 7 -10 12 0 24 4 27 9 3 4 24 5 46 1 23 -4 56 -4 74 0 26 6
38 2 65 -21 32 -27 33 -27 12 -38 -27 -15 -27 -52 -1 -76 17 -15 24 -16 49 -5
26 10 37 9 87 -14 70 -32 88 -33 81 -4 -3 12 -2 29 3 39 7 13 6 22 -6 33 -13
14 -13 20 3 66 10 27 23 50 30 50 8 0 13 13 13 35 0 33 2 35 36 35 19 0 44 -5
55 -10 13 -7 19 -7 19 0 0 7 84 10 250 10 241 0 250 -1 250 -20 0 -14 9 -21
34 -25 50 -10 80 -3 91 23 10 22 11 22 243 22 153 0 231 -3 227 -10 -3 -5 -16
-10 -28 -10 -12 0 -31 -7 -41 -15 -11 -8 -37 -15 -57 -15 -34 0 -38 -3 -44
-33 -4 -17 -12 -38 -19 -46 -8 -11 -8 -13 1 -8 13 8 63 -19 63 -34 0 -5 -13
-12 -29 -15 -31 -7 -41 -25 -41 -82 0 -26 -5 -35 -27 -44 l-28 -11 33 -10 c43
-13 80 6 100 53 13 31 15 33 27 17 19 -27 25 -20 25 29 0 25 5 54 11 65 9 17
6 25 -15 44 -30 28 -33 46 -8 67 32 29 59 31 82 6 l21 -23 21 25 c18 23 26 25
82 21 33 -1 57 1 53 5 -4 4 -28 7 -52 5 -27 -1 -45 2 -45 8 0 8 60 11 185 11
117 0 185 -4 185 -10 0 -5 -17 -10 -37 -11 -29 0 -33 -2 -18 -8 43 -16 162 0
150 19 -3 5 -1 11 5 15 6 3 13 0 16 -9 3 -8 12 -12 19 -10 7 3 16 1 20 -5 8
-14 9 -164 0 -227 -4 -34 -3 -45 4 -34 5 8 8 17 5 21 -2 4 0 10 6 14 6 3 10
50 10 107 0 80 3 105 17 120 15 17 15 18 0 18 -10 0 -17 4 -17 9 0 10 55 41
72 41 14 0 79 62 108 105 37 54 53 106 59 195 l6 75 52 17 51 17 36 -33 c20
-18 36 -37 36 -43 0 -7 25 -10 65 -9 36 0 65 2 65 4 0 2 -7 11 -16 19 -15 15
-14 18 10 30 29 15 35 34 8 27 -14 -4 -17 1 -17 28 0 31 -2 33 -32 30 -41 -4
-41 1 -2 41 17 17 36 44 41 59 11 31 39 51 77 55 19 2 22 -2 17 -20 -3 -12 -6
-25 -6 -29 0 -5 -7 -8 -15 -8 -14 0 -35 -37 -35 -61 0 -16 18 -10 23 9 3 12 5
10 6 -7 0 -14 -7 -33 -16 -43 -14 -15 -15 -23 -6 -38 15 -23 5 -90 -14 -97
-11 -4 -9 -9 7 -20 l22 -15 -25 -27 c-13 -14 -30 -42 -37 -61 -8 -19 -22 -46
-32 -59 -10 -13 -18 -29 -18 -36 0 -25 -93 -85 -165 -106 -25 -8 -33 -5 -57
21 -33 36 -76 43 -57 9 16 -32 -1 -42 -73 -43 -35 -1 -72 -7 -83 -13 -16 -10
-5 -11 60 -6 44 3 88 10 98 15 26 14 74 -33 53 -51 -8 -7 -14 -20 -14 -29 1
-9 -2 -34 -6 -55 -8 -41 -7 -42 29 -25 27 12 55 54 55 83 0 19 48 20 69 1 37
-33 46 -26 58 51 5 30 4 31 -27 30 -45 -3 -50 20 -8 38 39 16 88 60 88 79 0 7
9 21 20 31 11 10 20 25 20 33 0 22 39 87 62 101 14 9 23 9 33 1 7 -6 19 -10
27 -8 7 1 29 -9 49 -25 41 -31 67 -35 75 -9 8 24 25 63 36 86 9 16 5 24 -16
43 l-27 23 -29 -20 c-16 -12 -40 -34 -53 -51 -19 -25 -28 -29 -50 -24 -14 4
-31 13 -38 21 -14 17 -13 118 2 146 6 11 8 31 4 45 -4 17 2 41 20 74 14 27 25
56 25 64 0 11 6 15 18 10 11 -3 30 3 46 16 23 18 26 26 20 53 -3 17 -10 33
-14 36 -5 3 -10 16 -11 30 -3 16 -17 32 -42 46 -39 22 -37 37 8 45 11 2 25 14
30 27 6 13 20 25 33 29 19 4 22 12 22 54 0 33 5 51 16 57 12 7 14 19 8 60 -6
46 -9 50 -25 42 -30 -16 -42 -12 -36 13 3 12 11 45 18 72 6 28 15 55 19 60 5
6 8 48 8 95 -1 62 4 94 16 119 27 51 5 60 -27 11 -25 -37 -27 -45 -21 -110 4
-43 3 -74 -4 -82 -5 -7 -13 -40 -17 -73 -4 -33 -14 -70 -21 -83 -8 -12 -13
-26 -10 -30 3 -5 -16 -7 -41 -7 -51 2 -86 -23 -116 -84 -22 -45 -24 -156 -2
-165 8 -3 15 -14 15 -25 0 -37 -37 -13 -50 32 -13 47 -49 80 -89 79 -14 0 -30
3 -36 7 -5 3 -19 6 -30 6 -14 0 -21 8 -23 24 -4 28 -24 62 -64 108 l-27 33 -1
663 c0 365 3 678 6 696 5 22 16 37 38 48 17 9 34 20 37 26 15 22 31 -6 26 -44
-5 -40 9 -63 34 -54 8 2 28 -14 48 -40 49 -66 58 -58 34 29 -3 10 1 22 8 26 9
6 9 12 -4 25 -15 15 -24 45 -13 45 3 0 26 -11 52 -25 26 -14 50 -21 53 -17 3
5 32 11 64 14 86 7 92 22 22 55 -33 14 -54 28 -47 31 21 7 13 20 -17 27 -67
14 -61 59 12 96 53 27 52 26 37 44 -11 13 -5 24 39 74 28 33 51 62 51 65 0 12
-24 5 -80 -23 -38 -19 -61 -26 -67 -20 -7 7 -15 6 -25 -3 -8 -7 -28 -26 -46
-42 l-32 -30 3 40 c2 32 -1 38 -15 36 -14 -2 -18 4 -18 30 0 87 -29 101 -46
22 -7 -34 -16 -50 -28 -52 -15 -3 -17 -10 -11 -39 9 -47 -2 -90 -25 -96 -10
-3 -34 6 -54 21 l-36 26 2 175 c3 150 5 175 18 173 41 -10 70 -10 70 -1 0 6
-9 13 -20 16 -26 7 -25 17 4 36 13 9 26 30 30 48 5 28 1 38 -24 64 -16 17 -30
40 -30 52 0 11 -7 24 -16 27 -8 3 -13 10 -10 15 3 5 0 14 -7 20 -20 16 -20 87
-1 116 15 23 15 27 0 50 -13 20 -16 55 -16 205 0 99 4 180 8 180 4 0 13 -5 19
-11 8 -8 16 -7 31 2 35 22 43 84 16 124 -13 19 -21 23 -45 18 -28 -5 -29 -5
-29 38 l0 44 46 2 c56 2 61 6 44 39 -19 35 -47 49 -66 33 -17 -14 -29 -6 -21
14 3 8 20 17 39 20 37 6 59 -13 80 -70 7 -18 16 -33 20 -33 12 0 9 13 -7 34
-16 21 -19 37 -7 35 20 -3 32 2 32 15 0 8 8 17 18 20 9 4 24 21 32 38 9 20 25
35 40 39 14 3 24 11 23 17 -4 16 8 15 31 -3 17 -13 22 -12 43 8 19 18 53 77
53 93 0 2 -7 4 -15 4 -12 0 -13 4 -7 18 5 9 7 32 5 50 -6 39 -32 43 -57 10
-12 -16 -18 -19 -22 -10 -9 21 -33 13 -48 -15 -14 -26 -13 -30 12 -55 27 -29
21 -35 -22 -18 -31 11 -33 7 -7 -17 19 -18 19 -19 -9 -53 -26 -31 -29 -32 -30
-14 0 26 -15 39 -55 48 -16 4 -37 9 -46 12 -9 2 -26 -5 -39 -16 -26 -22 -36
-25 -45 -10 -3 5 6 17 20 26 27 17 25 34 -4 34 -14 0 -20 10 -24 38 -9 52 -7
1431 2 1462 4 17 17 28 39 35 18 5 32 15 32 23 0 12 4 12 23 -1 21 -13 25 -13
49 8 35 30 64 95 42 95 -15 0 -19 16 -6 24 14 8 1 67 -16 73 -9 4 -23 -3 -34
-17 -15 -18 -21 -20 -33 -10 -13 10 -19 9 -35 -5 -26 -24 -25 -50 2 -69 29
-20 15 -33 -18 -17 -35 16 -41 8 -11 -16 l24 -19 -27 -27 c-14 -15 -30 -27
-33 -27 -4 0 -7 196 -7 435 0 364 2 435 14 435 7 0 16 9 19 20 4 16 15 20 78
22 40 2 74 8 76 13 2 6 -31 24 -72 40 -41 15 -75 31 -75 35 0 3 5 11 12 18 9
9 4 14 -20 23 l-32 11 0 77 c0 74 1 78 34 110 30 29 52 69 70 124 4 13 12 16
25 12 11 -3 22 -1 25 4 4 5 20 9 36 9 38 -1 71 29 89 79 13 36 27 53 44 53 14
0 7 -41 -8 -46 -22 -9 -20 -120 2 -165 30 -61 65 -86 116 -84 25 0 43 -3 41
-7 -3 -5 -1 -14 4 -21 6 -7 15 -41 22 -77 6 -36 16 -75 22 -87 7 -13 8 -47 4
-87 -5 -55 -3 -70 16 -103 28 -49 27 -48 38 -37 5 5 2 24 -9 49 -12 29 -17 62
-15 123 1 45 -2 82 -6 82 -5 0 -13 24 -18 53 -6 28 -14 64 -18 80 -5 21 -3 27
9 27 9 0 19 -4 22 -10 13 -21 23 -8 29 41 6 42 4 53 -11 64 -13 10 -16 24 -14
59 2 40 0 46 -18 46 -12 0 -25 11 -33 28 -7 15 -23 28 -35 30 -12 2 -27 9 -33
17 -8 10 -3 17 27 31 27 14 38 25 38 42 0 13 5 26 12 30 6 4 14 21 17 38 6 27
3 35 -20 53 -16 13 -35 19 -46 16 -13 -5 -18 -1 -18 12 0 10 -10 34 -22 53
-11 19 -22 53 -24 75 -1 22 -6 65 -11 95 -10 60 0 120 20 120 7 0 22 3 33 6
17 4 26 -1 39 -23 9 -15 31 -38 49 -50 l33 -21 28 22 c22 18 26 26 17 42 -11
23 -28 62 -36 87 -8 25 -34 21 -75 -10 -20 -16 -42 -26 -49 -25 -8 2 -19 -2
-26 -8 -8 -5 -21 -7 -30 -4 -19 7 -66 83 -66 106 0 8 -9 23 -20 33 -11 10 -20
23 -20 30 0 16 -59 69 -93 83 -37 16 -29 37 13 35 31 -1 32 0 27 30 -12 77
-21 84 -58 51 -21 -19 -69 -18 -69 1 0 28 -24 67 -51 81 -16 8 -30 14 -33 14
-10 0 7 -106 20 -121 12 -13 10 -18 -13 -37 -17 -14 -31 -18 -42 -13 -9 5 -52
11 -96 14 -65 5 -76 4 -60 -6 11 -6 48 -12 83 -13 67 -1 95 -15 74 -36 -18
-18 -15 -28 9 -28 11 0 32 13 47 30 31 34 48 32 132 -10 67 -34 77 -46 119
-135 22 -45 46 -87 55 -94 20 -17 21 -40 1 -47 -13 -6 -14 -8 -2 -18 17 -13
30 -83 16 -91 -14 -10 -11 -42 6 -49 9 -3 15 -17 14 -33 -1 -17 -3 -21 -6 -10
-6 21 -23 23 -23 1 0 -24 19 -54 34 -54 12 0 25 -28 26 -52 0 -10 -42 -4 -66
10 -12 6 -27 25 -32 42 -6 16 -16 30 -21 30 -6 0 -11 7 -11 15 0 8 -9 19 -20
25 -31 16 -24 32 13 28 30 -3 32 -1 32 30 0 26 3 32 17 29 11 -3 15 0 11 9 -3
8 -8 14 -12 14 -3 0 -13 4 -21 10 -12 8 -12 11 2 27 16 17 14 18 -48 19 -39 1
-64 -2 -64 -9 0 -6 -16 -25 -35 -43 -31 -28 -39 -31 -68 -23 -73 18 -127 42
-132 58 -16 52 -158 161 -209 161 -21 0 -28 17 -17 39 6 10 14 52 17 92 5 52
13 78 27 92 14 14 16 22 8 30 -6 6 -11 48 -11 97 0 47 -6 104 -13 128 -12 39
-13 32 -12 -95 0 -133 -1 -138 -20 -134 -20 3 -20 3 -1 -18 15 -17 16 -23 6
-36 -9 -11 -9 -19 -2 -28 8 -9 6 -29 -6 -72 -19 -63 -23 -62 -47 6 -14 38 -14
44 1 60 12 13 13 22 5 36 -5 11 -6 25 -1 33 14 23 -22 42 -55 30 -17 -7 -33
-7 -45 0 -12 6 -27 6 -42 1 -20 -9 -19 -10 15 -10 44 -1 48 -14 9 -34 -24 -12
-31 -12 -50 1 -21 14 -25 13 -47 -8 -29 -27 -31 -46 -8 -72 15 -17 15 -20 -6
-42 -20 -21 -31 -23 -104 -24 -45 0 -90 4 -99 9 -10 6 -19 5 -23 -1 -3 -5 -1
-10 4 -10 16 0 13 -17 -4 -24 -8 -3 -37 -8 -65 -12 -57 -7 -70 10 -21 27 20 7
34 23 47 52 10 23 26 52 37 64 15 17 16 25 8 41 -17 31 -14 34 34 31 24 -2 48
1 52 5 4 4 -20 6 -55 4 -58 -3 -65 -1 -82 22 l-19 25 -24 -23 c-25 -24 -47
-22 -79 6 -25 21 -22 39 8 67 21 19 24 27 15 44 -6 11 -11 40 -11 65 0 49 -6
56 -25 29 -12 -16 -15 -13 -28 20 -9 20 -23 37 -31 37 -9 0 -16 5 -16 10 0 12
-37 12 -65 0 -19 -7 -18 -9 8 -19 22 -8 27 -17 27 -43 0 -51 11 -78 30 -78 10
0 23 -6 29 -14 10 -12 7 -17 -16 -29 -15 -8 -35 -12 -43 -10 -11 3 -11 2 1 -6
9 -6 20 -27 23 -47 6 -31 10 -35 34 -33 15 2 43 -4 62 -13 19 -9 44 -18 55
-20 12 -2 21 -12 23 -26 3 -18 -3 -25 -27 -33 -17 -6 -36 -20 -41 -30 -11 -20
-3 -69 10 -69 15 0 -3 -41 -24 -55 -12 -7 -42 -12 -70 -11 -38 2 -53 8 -65 25
-9 13 -29 37 -44 54 l-28 32 15 -32 c20 -40 20 -47 1 -39 -23 8 -18 -10 8 -27
21 -15 18 -16 -55 -16 -63 -1 -76 2 -72 13 8 21 -25 79 -41 72 -8 -3 -28 0
-45 5 -26 10 -34 8 -62 -16 -18 -15 -37 -37 -43 -49 -9 -19 -20 -21 -101 -24
-88 -3 -92 -2 -108 23 -13 20 -25 25 -56 25 -43 0 -49 -9 -24 -34 14 -15 -3
-16 -186 -16 -194 0 -200 1 -191 19 8 14 7 22 -5 32 -17 14 -15 50 4 57 8 2
12 -8 12 -32 0 -58 17 -50 23 12 5 47 11 61 34 79 15 13 35 23 43 23 8 0 21 9
28 21 9 13 20 19 32 16 10 -3 28 2 40 10 12 8 49 18 83 21 43 3 66 10 74 22
17 24 64 32 78 13 9 -12 14 -10 35 13 l25 27 -65 -6 c-36 -3 -73 -9 -83 -12
-14 -6 -17 -1 -17 24 0 20 -6 34 -16 38 -21 8 -49 -10 -48 -30 1 -12 -3 -14
-23 -6 -14 5 -29 7 -33 4 -5 -3 -14 4 -20 15 -15 27 -49 34 -89 17 l-34 -15
30 -6 c30 -7 72 -42 72 -61 0 -5 10 -13 23 -16 20 -5 18 -7 -17 -17 -22 -6
-59 -25 -83 -42 -23 -18 -46 -29 -51 -26 -5 3 -11 -1 -15 -9 -3 -8 -12 -15
-19 -15 -8 0 -20 -6 -26 -13 -12 -16 -87 -21 -96 -8 -5 10 26 24 41 19 15 -5
17 6 9 32 -13 43 -23 50 -56 38 -39 -13 -43 -23 -23 -53 15 -24 15 -25 0 -19
-24 9 -86 -26 -86 -49 0 -15 -5 -18 -21 -14 -36 10 -51 -2 -44 -34 6 -28 -2
-36 -30 -29 -5 2 -33 2 -60 1 -28 -1 -67 5 -89 14 -21 9 -59 17 -84 19 -25 1
-47 7 -49 12 -2 6 10 29 27 53 39 54 34 75 -25 88 -37 8 -49 7 -74 -8 -28 -17
-29 -19 -19 -61 19 -79 19 -81 -34 -82 -33 0 -54 6 -68 19 -16 15 -23 16 -29
7 -12 -19 -58 47 -63 88 -3 33 0 36 54 64 32 16 55 33 52 38 -3 4 -17 -1 -32
-12 -20 -16 -28 -18 -32 -8 -9 24 -64 78 -79 78 -17 0 -40 29 -41 52 0 9 -6
18 -14 20 -13 3 -13 6 0 23 12 16 19 18 42 9 29 -11 52 -8 52 7 0 5 -9 9 -20
9 -11 0 -20 5 -20 10 0 6 7 10 15 10 8 0 24 9 35 20 42 42 8 69 -45 34 -22
-14 -26 -14 -40 -1 -8 9 -15 20 -15 25 0 26 -81 64 -94 44z m-3126 -712 c0 -5
-16 -10 -35 -10 -34 0 -35 -1 -29 -27 13 -55 36 -65 79 -37 24 15 24 17 7 42
-10 16 -12 23 -4 18 7 -4 23 -1 37 8 20 13 57 16 205 16 164 0 202 -5 170 -25
-12 -7 7 -51 23 -53 7 -1 26 -4 43 -8 44 -8 85 19 82 55 -3 24 0 26 40 29 l42
3 0 -50 c0 -55 7 -60 45 -35 30 20 38 40 24 66 -9 17 -8 19 11 16 18 -2 23
-11 26 -41 3 -37 2 -38 -51 -64 -30 -15 -55 -31 -55 -35 0 -12 13 -9 34 7 24
18 36 19 36 3 1 -18 50 -64 77 -72 13 -4 27 -21 34 -41 7 -19 16 -32 21 -29
10 7 10 -7 -1 -25 -6 -9 -20 -11 -49 -6 -25 4 -42 2 -47 -4 -3 -7 2 -11 14
-11 11 0 23 -4 26 -10 3 -5 -1 -10 -10 -10 -18 0 -65 -43 -65 -60 0 -14 46
-13 69 2 24 15 49 4 61 -27 5 -13 24 -31 42 -39 29 -12 35 -12 46 2 6 9 12 30
12 48 0 33 14 52 25 34 7 -11 65 -2 80 12 7 6 0 18 -20 35 -19 17 -25 28 -17
31 20 6 14 30 -13 48 -25 16 -27 16 -50 -6 -29 -27 -42 -22 -25 10 15 29 8 35
-14 11 -16 -18 -18 -18 -46 7 -31 27 -40 48 -17 39 18 -7 51 19 42 33 -4 6 -3
16 2 23 15 21 15 63 -1 77 -9 7 -16 22 -16 34 1 20 2 20 24 -6 25 -28 36 -27
36 3 0 14 12 19 55 24 30 4 72 4 92 1 21 -4 51 -8 66 -9 27 -2 29 -4 24 -39
-3 -22 0 -41 7 -46 21 -17 80 -20 110 -5 20 11 31 12 39 4 6 -6 20 -11 32 -11
19 0 19 1 -4 19 -17 13 -21 24 -17 38 5 15 1 22 -14 26 -11 3 -20 10 -20 16 0
16 46 13 60 -4 16 -19 40 -19 68 1 16 11 27 13 35 6 7 -5 21 -11 31 -13 42 -8
19 -68 -27 -69 -10 0 -29 -7 -42 -16 -13 -9 -30 -12 -37 -8 -10 5 -11 4 0 -7
6 -7 12 -22 12 -34 0 -12 4 -25 9 -31 6 -5 6 -27 2 -51 -9 -44 0 -57 18 -26 9
17 11 16 33 -3 26 -24 45 -31 102 -38 56 -7 76 7 76 53 0 35 -3 39 -30 45 -21
4 -30 11 -30 25 0 11 -5 21 -12 23 -6 2 -8 10 -4 16 5 9 13 9 26 2 12 -7 28
-7 44 0 14 5 32 7 39 4 22 -8 49 42 42 76 l-6 29 53 -5 c29 -3 64 -8 78 -10
l25 -6 -25 -19 c-20 -15 -22 -19 -7 -19 21 0 22 -13 1 -48 -15 -24 -14 -24 12
5 16 17 36 41 44 53 19 26 103 36 136 15 21 -14 39 -55 24 -55 -10 0 -20 -50
-13 -67 3 -8 24 -22 46 -33 35 -17 46 -18 79 -8 40 12 48 25 23 34 -8 4 -15
14 -15 23 0 26 -38 76 -62 81 -29 7 -31 36 -3 32 72 -10 96 -16 102 -25 4 -6
1 -13 -5 -15 -7 -2 -10 -8 -6 -13 3 -5 13 -5 24 1 10 5 46 9 81 8 54 -1 74 3
126 30 43 22 76 32 108 32 32 0 52 6 67 20 21 19 36 20 351 20 l328 0 -7 -22
c-4 -13 -15 -34 -25 -47 -11 -13 -19 -29 -19 -36 0 -25 -93 -85 -165 -106 -25
-8 -33 -5 -57 21 -32 35 -76 43 -56 10 19 -30 -3 -44 -67 -43 -30 1 -55 -3
-55 -8 0 -13 97 -11 122 2 16 9 24 7 44 -12 22 -21 23 -24 8 -40 -9 -10 -14
-22 -11 -26 3 -5 2 -26 -3 -46 -10 -46 -2 -51 37 -27 21 12 33 30 40 57 10 42
23 45 80 15 18 -9 35 -14 38 -11 3 3 8 26 11 51 l6 46 -32 -1 c-45 -3 -50 20
-8 38 18 7 43 24 56 37 30 30 72 96 72 111 0 35 21 37 327 37 195 0 303 -4
303 -10 0 -5 9 -19 20 -30 18 -18 23 -19 48 -6 25 13 32 11 87 -15 63 -31 86
-31 83 -2 -5 65 -9 63 120 63 87 -1 122 -4 136 -15 25 -19 50 -19 66 0 16 19
50 20 50 1 0 -8 -4 -18 -10 -21 -5 -3 -10 -13 -10 -21 0 -9 -10 -24 -22 -35
-20 -16 -21 -18 -5 -19 9 0 26 5 37 12 15 10 22 9 37 -4 13 -12 29 -14 63 -9
l45 6 0 43 c0 27 6 46 15 52 17 11 162 12 200 1 14 -4 27 -17 30 -31 l6 -25
18 28 c10 15 22 27 27 27 16 0 9 -35 -10 -52 -17 -14 -18 -22 -9 -65 12 -54
25 -76 44 -69 26 10 23 -9 -6 -36 l-31 -28 -25 28 c-20 21 -24 23 -19 7 4 -11
10 -31 12 -45 l5 -25 -24 29 c-22 26 -26 28 -49 16 -32 -17 -40 -32 -26 -48 9
-11 6 -18 -13 -32 -14 -10 -21 -24 -17 -32 6 -18 67 -30 83 -17 8 7 13 -4 18
-33 10 -62 20 -69 62 -49 19 10 41 28 48 42 12 24 20 26 84 13 25 -5 32 -3 32
10 0 20 -35 56 -55 56 -8 0 -15 5 -15 10 0 6 9 10 20 10 11 0 20 5 20 11 0 6
-16 8 -44 4 -38 -6 -46 -4 -55 14 -10 17 -9 20 4 15 10 -4 15 0 15 13 0 28 28
63 52 63 11 0 22 8 25 20 3 10 14 22 24 25 10 4 19 13 19 21 0 18 11 18 36 -1
10 -8 23 -15 29 -15 16 0 -9 19 -56 43 -41 20 -44 25 -47 65 -3 37 -1 42 17
42 17 0 20 -5 15 -29 -5 -22 -1 -32 21 -50 15 -11 31 -21 36 -21 5 0 11 23 15
50 l7 50 40 0 c39 0 39 -1 34 -30 -6 -26 -2 -32 23 -45 33 -17 76 -20 85 -5 4
6 11 8 16 5 5 -4 14 5 20 19 9 20 9 29 -1 41 -11 13 8 15 178 15 157 0 192 -3
202 -15 8 -10 21 -13 33 -9 19 6 19 5 3 -17 -22 -31 -21 -35 14 -49 36 -15 53
-5 69 41 10 28 9 29 -25 29 -18 0 -34 5 -34 10 0 17 82 8 115 -12 17 -10 37
-20 45 -24 16 -6 27 -12 75 -44 17 -11 34 -21 39 -23 5 -2 10 -12 11 -23 0
-10 9 -31 19 -46 19 -29 38 -98 27 -98 -4 0 -14 9 -24 20 -9 11 -26 20 -37 20
-11 0 -23 7 -26 15 -7 18 -24 20 -24 3 0 -6 -6 -19 -14 -27 -23 -28 -28 -68
-9 -86 13 -14 29 -16 75 -12 56 5 58 4 59 -19 1 -13 2 -30 3 -36 1 -7 -6 -23
-17 -35 -14 -15 -18 -30 -13 -47 9 -35 0 -33 -45 13 -43 43 -88 56 -119 34
-11 -8 -25 -11 -31 -7 -8 4 -9 -1 -4 -17 5 -13 9 -40 10 -59 3 -45 14 -80 26
-80 5 0 9 -11 9 -25 0 -24 4 -27 45 -29 15 -1 20 -8 20 -31 0 -21 5 -31 18
-33 29 -6 47 17 47 59 0 26 4 39 14 39 10 0 13 -18 12 -72 -1 -40 3 -74 8 -75
16 -3 26 -27 26 -65 0 -30 -10 -48 -57 -103 l-58 -67 -8 34 c-13 54 -39 132
-47 141 -4 4 -13 1 -20 -8 -11 -13 -20 -8 -75 40 -35 30 -66 55 -69 55 -13 0
-5 -33 19 -80 29 -58 30 -60 10 -60 -23 0 -18 -14 15 -38 36 -27 41 -58 8 -48
-88 26 -126 30 -141 14 -9 -8 -33 -18 -54 -21 -40 -7 -103 -41 -103 -55 0 -5
28 -17 63 -27 34 -9 68 -19 75 -21 8 -2 11 -11 7 -24 -5 -17 -2 -20 22 -21 17
-1 21 -3 11 -6 -10 -2 -18 -9 -18 -14 0 -6 9 -7 23 -3 36 12 49 10 60 -8 16
-25 -16 -82 -65 -116 -40 -29 -48 -49 -23 -58 21 -9 19 -26 -11 -81 -15 -26
-37 -67 -50 -90 -39 -72 0 -64 89 17 46 42 60 50 71 41 15 -13 36 10 87 94
l24 40 5 -52 c6 -59 13 -71 34 -54 18 15 22 9 36 -69 7 -36 14 -76 17 -89 l4
-24 22 22 c19 19 22 33 22 103 0 70 2 81 18 84 13 2 17 -5 17 -26 0 -16 5 -32
10 -35 6 -4 8 -15 5 -25 -3 -10 -1 -21 5 -25 13 -8 13 -61 0 -85 -6 -11 -27
-27 -48 -36 -20 -10 -39 -19 -42 -22 -3 -2 -5 -37 -5 -77 0 -70 1 -73 18 -55
9 11 17 29 17 41 0 12 14 37 30 56 16 18 30 40 30 48 0 8 4 15 9 15 4 0 7 -96
5 -212 -2 -175 -5 -213 -17 -210 -8 1 -22 -7 -32 -18 -19 -21 -45 -27 -45 -10
0 5 9 15 20 22 27 17 25 27 -5 38 -15 6 -25 17 -25 29 0 11 -10 25 -21 32 -17
9 -20 17 -16 46 4 24 2 33 -6 30 -7 -2 -13 -15 -15 -28 -2 -20 -12 -28 -46
-38 -50 -14 -61 -32 -71 -114 -6 -49 -5 -56 13 -66 12 -6 35 -11 52 -11 l32 0
-6 -67 c-7 -73 -13 -87 -27 -60 -12 21 -31 23 -23 2 8 -19 1 -19 -39 1 l-32
15 26 -23 c14 -13 39 -32 55 -44 26 -19 29 -27 27 -69 -2 -58 -20 -95 -45 -95
-19 0 -22 -20 -9 -55 8 -19 8 -19 15 3 4 12 14 22 23 22 12 0 14 -8 9 -37 -3
-21 -6 -45 -6 -53 0 -8 -5 -22 -10 -30 -9 -13 -11 -13 -19 0 -6 8 -13 11 -18
7 -4 -4 -2 -16 4 -27 11 -17 11 -76 0 -87 -3 -2 -1 -20 5 -40 8 -28 6 -38 -7
-54 -24 -26 -14 -53 46 -127 30 -38 52 -74 52 -88 -1 -13 4 -27 9 -30 5 -3 6
-14 3 -25 -5 -13 -2 -19 10 -19 22 0 75 -57 75 -81 0 -10 6 -19 14 -19 31 0
49 -88 48 -242 0 -119 -8 -148 -38 -148 -19 0 -32 -29 -42 -94 -10 -66 3 -86
57 -86 26 0 32 -3 27 -16 -3 -9 -6 -41 -6 -71 0 -55 0 -56 -20 -38 -18 16 -20
16 -20 2 0 -21 -9 -21 -34 -2 -11 8 -24 15 -28 15 -15 0 26 -37 60 -54 17 -9
33 -24 34 -34 6 -72 5 -100 -8 -119 -8 -13 -20 -22 -26 -20 -14 2 -23 -37 -13
-61 5 -14 8 -13 18 7 13 25 33 26 30 1 -11 -91 -26 -128 -42 -102 -4 6 -6 -27
-5 -73 3 -101 -10 -113 -19 -18 -10 106 -29 109 -64 11 -14 -38 -21 -47 -35
-42 -14 4 -18 0 -18 -18 0 -29 -26 -68 -45 -68 -17 0 -74 68 -81 98 -7 25 -19
29 -28 7 -9 -24 -21 -18 -91 41 -36 31 -69 53 -73 49 -4 -3 10 -39 31 -79 21
-41 35 -80 31 -89 -4 -11 9 -30 40 -58 25 -24 46 -46 46 -50 0 -4 -18 -5 -41
-2 -36 5 -41 4 -37 -13 3 -15 -6 -21 -47 -32 -87 -22 -87 -46 0 -57 44 -5 55
-10 53 -23 -2 -13 4 -16 22 -15 78 7 122 5 131 -4 8 -8 3 -27 -20 -69 -33 -61
-38 -84 -20 -84 9 0 10 -21 6 -70 -3 -38 -2 -70 2 -70 5 0 21 25 37 55 21 40
33 53 45 50 22 -7 59 79 59 134 0 23 4 41 8 41 13 0 77 -71 103 -115 30 -49
49 -103 43 -120 -3 -6 1 -17 9 -23 28 -23 -8 -112 -44 -112 -11 0 -19 -4 -19
-10 0 -5 -6 -10 -13 -10 -7 0 -24 -14 -36 -31 l-23 -31 22 -30 c14 -19 20 -38
16 -51 -5 -20 -4 -21 8 -4 10 13 24 16 57 13 l44 -4 0 -53 0 -54 -35 3 -35 3
33 -28 c29 -25 32 -34 32 -80 0 -38 -4 -53 -14 -53 -7 0 -19 -7 -26 -15 -7 -8
-24 -15 -39 -15 l-26 1 28 20 c33 25 34 37 5 41 -15 2 -24 11 -26 25 -2 13
-13 29 -24 37 -17 12 -19 21 -14 50 6 30 4 35 -9 30 -8 -3 -15 -17 -15 -30 0
-15 -7 -27 -17 -30 -81 -27 -89 -38 -99 -133 -4 -42 -2 -49 20 -61 14 -7 36
-10 51 -6 l27 7 -6 -72 c-3 -40 -8 -74 -11 -77 -6 -7 -43 38 -51 63 -9 26 -55
87 -61 81 -3 -3 4 -18 16 -34 12 -17 21 -36 21 -44 0 -7 9 -21 20 -31 29 -24
15 -41 -16 -21 -34 23 -42 11 -9 -13 76 -52 80 -59 78 -109 -2 -54 -21 -97
-40 -90 -18 7 -25 -10 -18 -46 l7 -32 15 27 c23 45 36 33 29 -25 -9 -64 -24
-97 -37 -77 -12 21 -22 3 -10 -19 6 -11 8 -35 6 -54 -8 -51 -8 -51 -2 -83 5
-24 1 -36 -19 -59 -25 -28 -27 -29 -39 -12 -16 22 -64 18 -79 -6 -8 -13 -8
-26 0 -46 9 -24 7 -38 -17 -88 -16 -32 -27 -63 -26 -68 5 -15 81 -15 98 0 13
12 21 11 57 -6 22 -11 46 -20 52 -20 5 0 9 -6 8 -12 -2 -9 14 -14 49 -16 46
-3 56 -7 78 -36 14 -18 25 -38 25 -44 0 -6 9 -16 19 -22 23 -12 42 -86 47
-187 3 -75 -2 -88 -24 -53 -6 11 -34 31 -61 45 -27 13 -52 29 -55 34 -4 5 -39
21 -79 36 -39 15 -82 31 -94 37 -11 6 -27 8 -35 5 -9 -3 -7 -7 7 -11 11 -4 33
-14 48 -22 16 -7 35 -14 44 -14 21 0 171 -84 210 -118 34 -29 36 -37 34 -128
-1 -52 -4 -62 -18 -60 -16 1 -18 -8 -15 -77 2 -61 0 -78 -10 -75 -7 3 -14 20
-16 39 -4 42 -19 61 -46 57 -15 -2 -20 -10 -21 -33 0 -20 -5 -29 -14 -27 -28
6 -51 -9 -51 -34 0 -13 -4 -24 -9 -24 -13 0 -23 -35 -26 -85 -1 -22 -6 -49
-10 -59 -6 -14 -5 -17 3 -12 7 4 21 1 32 -7 31 -22 76 -9 119 34 21 22 41 39
45 39 3 0 3 -13 0 -29 -5 -23 -2 -32 15 -43 16 -10 21 -23 21 -55 l0 -42 -62
5 c-35 3 -69 1 -77 -5 -19 -12 -16 -68 3 -90 9 -10 16 -23 16 -29 0 -17 17
-15 24 3 3 8 15 15 26 15 11 0 30 11 42 25 27 31 37 25 32 -22 -2 -27 -12 -45
-34 -64 -31 -26 -31 -39 2 -39 28 0 21 -19 -9 -26 -48 -10 -81 -25 -99 -45 -9
-10 -25 -19 -34 -19 -10 0 -20 -7 -24 -15 -3 -8 -12 -15 -19 -15 -8 0 -19 -6
-25 -13 -10 -11 -30 -13 -84 -9 -33 3 -18 22 17 22 19 0 35 2 35 4 0 20 -26
66 -40 71 -18 6 -70 -13 -70 -24 0 -4 7 -17 16 -30 16 -22 16 -23 -4 -17 -11
4 -23 2 -27 -4 -4 -6 -18 -15 -31 -20 -13 -5 -24 -16 -24 -24 0 -9 -12 -16
-32 -18 -30 -3 -33 -6 -30 -34 l3 -32 -73 2 c-40 1 -100 10 -133 19 -32 9 -69
17 -82 17 -36 0 -37 19 -4 60 24 31 30 45 25 65 -4 16 -12 24 -20 21 -7 -3
-16 -1 -19 4 -9 15 -52 12 -85 -5 -31 -16 -37 -29 -20 -40 6 -4 8 -10 5 -15
-3 -5 1 -25 9 -44 8 -20 11 -38 6 -41 -17 -11 -95 -2 -112 13 -9 7 -25 11 -35
8 -25 -8 -59 48 -59 94 1 32 6 37 51 60 63 32 59 29 52 36 -3 3 -16 -1 -29
-10 -26 -19 -38 -20 -38 -5 0 16 -56 69 -74 69 -18 0 -46 38 -46 62 0 12 -5
15 -16 11 -14 -5 -14 -3 -2 16 11 19 19 21 56 16 44 -7 59 8 20 19 -22 6 -22
7 8 20 29 13 44 33 44 58 0 6 -13 8 -32 4 -64 -13 -72 -11 -84 13 -7 14 -29
32 -48 42 -42 20 -51 13 -61 -49 -5 -31 -10 -40 -18 -34 -16 13 -77 3 -84 -14
-3 -8 5 -23 18 -33 19 -16 22 -22 12 -32 -10 -10 -9 -18 9 -36 28 -30 42 -29
67 5 23 31 28 14 11 -35 l-10 -28 24 27 25 27 30 -27 c32 -28 41 -48 17 -39
-26 10 -46 -17 -52 -68 -5 -40 -3 -54 10 -64 17 -14 22 -51 7 -51 -5 0 -17 12
-27 28 l-18 27 -6 -25 c-3 -14 -14 -26 -25 -28 -11 -2 -30 -15 -42 -30 -20
-24 -25 -26 -53 -15 -16 6 -30 8 -30 5 1 -17 17 -30 40 -33 14 -2 25 -11 26
-19 3 -36 18 -60 55 -86 34 -23 43 -25 64 -16 14 6 31 9 38 6 19 -7 48 41 45
74 -3 26 -1 27 37 24 22 -1 56 -5 75 -8 l34 -6 -24 -19 c-20 -15 -22 -19 -7
-19 21 0 22 -13 1 -48 -15 -24 -14 -24 12 5 16 17 36 41 44 53 11 16 28 22 65
25 56 4 89 -12 98 -45 4 -18 2 -20 -16 -14 -31 9 -67 33 -67 44 0 6 -7 10 -16
10 -13 0 -15 -10 -12 -55 l3 -55 -115 0 c-106 1 -114 2 -95 16 11 9 35 22 53
30 17 8 32 17 32 20 0 14 -56 -9 -91 -37 l-37 -29 -346 0 c-190 0 -346 4 -346
8 0 17 25 32 55 32 17 0 35 4 40 9 16 15 107 28 156 24 40 -4 49 -1 78 26 18
17 38 31 45 31 6 1 22 7 35 14 35 19 11 27 -35 11 -42 -14 -112 -5 -142 18 -7
5 -15 7 -19 4 -3 -4 4 -15 17 -25 l23 -18 -44 -22 -44 -22 -4 22 c-1 13 -7 26
-13 29 -5 3 4 12 21 19 37 15 37 19 10 54 -24 31 -48 33 -80 7 -22 -18 -23
-22 -11 -42 13 -20 11 -24 -17 -46 -34 -27 -33 -43 2 -43 22 -1 22 -1 3 -15
-11 -8 -29 -15 -40 -15 -12 0 -38 -13 -58 -29 -31 -23 -49 -28 -98 -30 -56 -1
-61 0 -70 24 -6 17 -17 25 -32 25 -29 -1 -62 -25 -53 -39 4 -8 -56 -11 -199
-11 -168 0 -206 3 -206 14 0 13 -41 26 -82 26 -11 0 -33 -9 -49 -21 -39 -28
-93 -23 -97 9 -4 29 -24 28 -53 -3 -27 -28 -44 -32 -52 -11 -6 16 19 35 79 61
21 10 34 19 27 22 -6 2 -23 -3 -37 -13 -17 -11 -26 -12 -26 -4 0 17 -54 68
-84 80 -18 6 -28 20 -32 39 -4 17 -12 31 -19 33 -11 2 -11 6 -1 21 11 14 18
16 41 7 16 -6 36 -8 44 -4 13 5 11 8 -8 15 l-24 9 34 23 c19 12 35 33 37 45 4
26 -11 28 -52 7 -36 -19 -53 -14 -66 19 -5 15 -25 32 -46 41 -44 18 -50 13
-60 -53 -5 -32 -9 -40 -19 -32 -16 13 -75 1 -82 -16 -3 -8 5 -23 18 -34 20
-16 22 -21 10 -29 -12 -8 -13 -12 -1 -26 29 -35 48 -37 75 -8 26 29 32 22 15
-21 -12 -31 2 -34 22 -5 l14 22 34 -32 c30 -27 32 -31 13 -31 -28 0 -39 -16
-50 -72 -8 -37 -7 -49 4 -61 12 -12 2 -14 -72 -16 -78 -1 -103 7 -75 24 19 12
10 27 -12 22 -27 -6 -87 -27 -109 -37 -13 -7 -15 -4 -11 16 5 26 0 29 -60 38
-25 5 -40 2 -51 -9 -20 -20 -30 -19 -51 4 -16 17 -16 19 0 25 27 10 -3 36 -41
36 -39 0 -47 14 -40 78 l5 47 -20 -25 -20 -25 -21 27 c-27 37 -76 38 -108 4
-19 -21 -22 -31 -16 -65 4 -23 11 -43 16 -47 5 -3 9 -14 9 -25 0 -10 7 -19 15
-19 24 0 18 -20 -9 -30 -34 -12 -47 -36 -15 -26 13 5 33 9 44 11 11 1 28 6 38
10 9 4 32 4 51 1 18 -4 44 -2 58 3 28 10 58 -2 58 -24 0 -13 -40 -15 -260 -15
-143 0 -260 3 -260 8 0 4 -13 7 -30 7 -16 0 -30 -3 -30 -7 0 -5 -18 -8 -40 -8
-34 0 -42 4 -50 25 -12 32 -34 41 -67 26 -18 -8 -24 -17 -20 -31 5 -19 -1 -20
-198 -20 -193 0 -204 1 -210 19 -9 29 -86 39 -120 17 -14 -9 -25 -21 -25 -26
0 -6 -68 -10 -175 -10 -123 0 -175 3 -175 11 0 8 -4 8 -14 0 -9 -8 -50 -11
-117 -9 l-104 3 -14 31 c-12 27 -20 32 -60 37 -25 3 -51 1 -58 -4 -7 -7 -14
-6 -18 1 -3 5 1 10 9 10 21 0 20 16 -1 25 -16 6 -16 8 2 15 12 4 45 9 75 11
l55 4 -3 -28 c-4 -35 21 -76 45 -75 10 0 29 -2 43 -6 19 -5 32 -1 49 13 13 12
27 21 30 21 9 0 36 63 33 77 -2 8 7 13 21 13 24 0 55 25 44 36 -3 3 -14 1 -25
-5 -32 -17 -48 -13 -60 14 -8 17 -20 25 -37 25 -18 0 -25 5 -25 19 0 30 -16
33 -30 6 -7 -14 -17 -25 -22 -25 -14 0 -9 37 8 50 11 10 14 23 9 49 -3 20 -7
44 -8 53 -1 9 -11 23 -21 31 -19 14 -19 14 0 40 10 15 21 26 24 26 3 0 25 -24
50 -54 29 -34 49 -50 56 -44 7 5 25 -6 49 -31 22 -22 42 -40 46 -40 4 0 -2 25
-13 56 -15 43 -17 58 -8 64 8 5 4 16 -17 38 -42 46 -55 63 -52 66 35 26 60 36
91 36 30 0 38 4 38 19 0 13 14 24 45 36 59 22 53 40 -13 40 -44 0 -52 3 -52
19 0 10 -5 16 -12 13 -35 -13 -58 -18 -58 -12 0 3 11 24 25 46 15 23 24 48 20
58 -3 10 1 45 10 77 8 32 15 62 15 66 0 22 -23 2 -61 -52 -42 -60 -53 -68 -64
-50 -12 20 -23 10 -29 -27 -8 -48 -38 -88 -60 -80 -9 4 -24 20 -35 37 -12 21
-21 27 -24 18 -3 -9 -10 -6 -22 10 -9 13 -27 35 -40 50 -21 24 -24 25 -31 9
-3 -10 -2 -40 3 -67 6 -29 6 -53 1 -58 -5 -5 5 -28 26 -56 37 -47 31 -60 -16
-35 -14 8 -23 8 -31 0 -6 -6 -28 -11 -49 -11 -45 0 -49 -11 -10 -28 53 -24 77
-42 74 -56 -2 -11 10 -16 49 -18 34 -2 54 -8 57 -17 3 -8 0 -11 -5 -8 -5 3
-15 -9 -22 -28 -7 -19 -21 -37 -34 -41 -25 -8 -77 -57 -77 -73 0 -15 -12 -14
-38 5 -13 9 -26 13 -29 10 -4 -3 -4 -7 -2 -8 2 -2 27 -15 54 -29 45 -23 50
-30 51 -60 0 -43 -41 -102 -66 -94 -9 3 -22 0 -28 -8 -15 -18 -122 -22 -122
-4 0 7 4 17 10 23 5 5 12 28 15 51 4 35 2 43 -20 57 -27 18 -71 21 -80 6 -3
-5 -11 -7 -18 -5 -7 3 -17 -5 -23 -18 -9 -20 -6 -29 18 -57 43 -53 38 -66 -29
-75 -32 -4 -72 -13 -90 -20 -18 -8 -61 -13 -97 -13 l-66 1 0 34 c0 30 -3 33
-30 33 -18 0 -30 5 -30 13 0 15 -68 53 -88 49 -13 -3 -13 0 1 21 16 24 15 26
-8 41 -37 24 -55 19 -71 -19 -19 -46 -19 -45 21 -45 35 0 50 -19 18 -22 -55
-4 -75 -2 -85 9 -6 7 -17 13 -25 13 -7 0 -16 7 -19 15 -4 8 -12 15 -20 15 -8
0 -33 14 -56 30 -22 17 -49 30 -59 30 -24 0 -49 10 -49 21 0 5 9 9 20 9 27 0
25 18 -5 42 -19 15 -25 29 -25 59 0 43 9 49 28 19 7 -11 23 -20 36 -20 13 0
26 -7 30 -15 7 -19 26 -20 26 -1 0 7 7 19 15 26 19 16 19 74 0 90 -11 9 -34
11 -75 7 l-60 -7 0 45 c0 30 5 47 14 51 21 8 28 32 16 55 -18 32 7 22 49 -20
43 -43 90 -56 121 -34 11 8 25 11 30 8 7 -4 7 3 0 20 -6 15 -10 42 -10 62 0
19 -7 49 -16 66 -9 18 -20 39 -24 47 -5 9 -19 14 -35 13 -24 -2 -26 1 -23 30
3 28 0 32 -24 35 -22 3 -30 -2 -38 -23 -5 -14 -9 -35 -7 -47 1 -11 -4 -23 -12
-26 -11 -4 -13 6 -7 52 8 68 -1 109 -20 102 -11 -4 -14 11 -14 77 l1 82 57 38
c31 20 75 50 97 66 l40 30 6 -42 c10 -65 29 -127 38 -127 5 0 12 8 15 17 6 14
18 5 62 -45 71 -80 88 -81 63 -5 -23 68 -24 84 -4 77 23 -9 18 10 -10 36 -22
20 -35 60 -20 60 3 0 28 -11 55 -25 50 -25 90 -32 90 -16 0 5 24 12 53 16 65
9 120 31 115 46 -2 6 -33 23 -68 37 -79 32 -76 30 -62 44 19 19 14 25 -30 32
-23 4 -48 12 -55 18 -35 29 3 91 82 133 40 22 42 29 15 48 -19 13 -18 16 30
88 28 41 57 84 66 97 16 21 15 22 -6 22 -24 0 -109 -49 -131 -76 -8 -10 -21
-13 -40 -9 -24 6 -33 0 -76 -54 l-48 -61 -3 56 c-3 53 -4 56 -26 50 -22 -5
-24 -2 -28 44 -6 57 -34 108 -51 91 -6 -6 -13 -41 -16 -78 -5 -59 -9 -68 -26
-68 -14 0 -19 -6 -17 -20 11 -62 13 -178 3 -188 -19 -19 -103 42 -128 93 -22
43 -24 66 -8 102 4 11 0 23 -14 35 l-21 17 0 977 c0 863 2 978 15 989 9 7 18
10 22 7 10 -11 33 14 33 34 0 26 7 24 39 -10 l28 -30 -26 -21 c-25 -20 -22
-21 27 -6 28 9 30 -9 2 -24 -26 -14 -26 -42 0 -65 15 -14 23 -15 34 -6 11 9
18 6 34 -16 16 -23 22 -25 35 -15 17 14 28 70 15 78 -13 9 -9 24 7 24 14 0 14
4 -1 33 -9 17 -28 44 -41 59 -24 25 -27 26 -49 11 -13 -8 -24 -11 -24 -5 0 5
-14 15 -30 21 -20 7 -34 21 -41 40 -6 17 -19 33 -30 36 -10 4 -19 13 -19 21 0
8 -5 14 -10 14 -20 0 -22 29 -4 47 16 17 16 18 1 21 -16 3 -17 35 -17 367 0
352 5 415 29 352 13 -35 37 -48 27 -16 -4 13 -9 34 -9 46 -1 12 -5 25 -9 29
-5 4 -8 19 -8 34 0 14 -6 32 -12 38 -14 14 -21 75 -8 67 4 -2 15 4 25 15 10
11 24 20 30 20 7 0 31 17 54 38 l42 37 -23 35 c-12 19 -21 44 -20 55 2 19 2
19 -9 2 -8 -14 -19 -17 -43 -13 -40 7 -53 -2 -59 -39 -2 -17 -5 48 -6 143 -1
172 -1 173 20 167 14 -5 27 0 40 14 12 12 26 18 36 14 14 -5 12 -10 -11 -28
-28 -22 -26 -35 6 -35 12 0 18 -7 18 -23 0 -15 9 -29 25 -37 27 -14 31 -30 15
-61 -9 -15 -7 -19 5 -19 9 0 18 12 22 30 3 17 11 30 18 30 35 0 75 33 84 68
21 87 21 109 -3 122 -13 6 -36 10 -52 8 -22 -2 -29 1 -28 15 0 9 1 36 2 60 1
23 7 49 12 57 8 13 11 12 24 -5 14 -18 15 -18 16 -2 0 21 9 21 34 2 11 -8 24
-15 28 -15 15 0 -26 37 -59 54 -18 9 -34 24 -34 34 -6 73 -5 100 7 117 8 11
20 20 27 20 7 0 13 16 15 38 2 21 -1 37 -7 37 -6 0 -11 -6 -11 -14 0 -7 -6
-19 -14 -25 -21 -17 -29 3 -18 42 6 17 13 44 16 60 7 31 22 36 29 10 2 -10 2
29 0 87 -3 100 -2 107 22 135 23 27 26 28 35 13 24 -40 99 -7 85 36 -12 37 -8
66 18 116 14 26 22 51 18 56 -11 16 -88 15 -101 -1 -8 -10 -17 -12 -24 -6 -6
4 -28 14 -48 20 -21 7 -38 19 -38 27 0 10 -13 14 -50 14 -41 0 -53 5 -75 28
-14 15 -28 36 -32 47 -3 11 -14 26 -24 33 -12 8 -19 25 -19 46 0 17 -6 38 -12
44 -9 9 -14 73 -16 227 -3 183 -2 215 11 215 8 0 35 9 61 21 l46 20 30 -23
c33 -27 36 -49 14 -114 -15 -45 -13 -59 9 -59 8 0 13 -27 15 -77 2 -60 6 -78
17 -78 17 0 38 38 55 98 9 37 13 42 26 31 22 -18 32 -1 36 56 l3 50 34 -55
c51 -82 62 -92 78 -79 10 9 24 2 62 -34 49 -46 104 -80 114 -71 3 3 -18 50
-46 104 l-52 98 23 19 23 18 -44 34 c-55 41 -87 94 -71 119 6 10 33 21 63 27
39 8 49 13 40 22 -14 14 -4 33 18 33 28 0 123 31 123 41 0 15 -62 49 -103 56
-21 3 -45 13 -54 21 -15 16 -31 14 -140 -14 -32 -9 -29 12 7 46 34 31 37 40
15 40 -19 0 -20 -2 14 67 42 83 24 90 -49 18 -49 -49 -61 -56 -74 -46 -8 7
-19 10 -25 7 -13 -8 -41 -94 -41 -127 0 -15 -4 -30 -8 -33 -5 -3 -31 21 -58
52 -42 49 -49 62 -46 94 3 32 6 36 29 35 14 -1 29 5 33 13 24 44 39 89 38 115
0 17 5 43 11 58 7 17 7 26 1 22 -5 -3 -19 0 -30 8 -31 22 -78 9 -121 -34 -42
-42 -67 -52 -49 -20 13 25 4 48 -21 56 -15 5 -19 16 -19 51 l0 45 59 -7 c75
-8 101 5 101 49 -1 41 -45 101 -56 74 -3 -9 -16 -17 -27 -17 -12 0 -34 -12
-49 -27 l-29 -27 5 24 c2 14 5 33 5 42 1 9 12 30 26 46 15 18 23 37 19 46 -4
11 2 19 21 26 15 6 41 22 57 35 16 14 38 25 48 25 10 0 20 6 23 14 9 24 147
48 147 26z m2397 -24 l3 -33 -73 2 c-39 2 -97 10 -127 19 -30 9 -67 16 -82 16
-27 0 -43 12 -31 24 3 3 74 6 157 6 l151 0 2 -34z m-2906 -198 c14 -23 18 -42
14 -63 -3 -16 -10 -57 -14 -90 -4 -34 -13 -70 -20 -82 -6 -12 -12 -37 -14 -55
-1 -18 -7 -33 -12 -32 -25 3 -55 17 -55 26 0 7 -15 8 -40 4 -29 -4 -39 -3 -36
6 1 7 1 10 -1 6 -3 -5 -11 -8 -19 -8 -9 0 -14 12 -14 35 0 20 -7 50 -16 66
-14 28 -14 32 0 48 9 10 16 23 16 30 0 20 53 91 68 91 14 0 9 -13 -16 -43 -11
-12 -12 -21 -5 -28 15 -15 56 26 49 49 -7 23 7 43 41 58 43 19 52 17 74 -18z
m6974 15 c32 -15 36 -21 32 -46 -5 -36 38 -92 49 -63 3 9 -1 28 -11 42 -9 14
-14 28 -11 31 11 11 42 -26 71 -82 26 -53 27 -56 12 -93 -8 -21 -13 -50 -10
-65 4 -20 1 -27 -10 -27 -8 0 -17 3 -20 8 -2 4 -2 1 0 -6 2 -11 -6 -12 -37 -7
-26 4 -40 3 -40 -4 0 -6 -9 -11 -20 -11 -11 0 -20 -4 -20 -10 0 -5 -7 -10 -15
-10 -8 0 -15 9 -15 20 0 10 -7 39 -15 63 -8 24 -17 63 -19 88 -3 24 -8 64 -12
89 -5 37 -2 50 16 73 25 32 28 32 75 10z m-6659 -600 c19 -28 34 -54 34 -57 0
-3 -31 -6 -69 -6 -38 0 -81 -4 -95 -10 l-26 -10 0 66 c0 61 1 65 20 59 17 -5
21 0 26 35 l7 41 34 -33 c19 -18 50 -56 69 -85z m-112 -824 c14 -17 26 -39 26
-50 0 -10 5 -19 10 -19 6 0 15 -11 20 -25 5 -14 14 -25 19 -25 15 0 4 -75 -14
-104 -17 -25 -17 -28 9 -66 15 -23 31 -38 36 -35 6 4 10 -9 10 -30 0 -35 1
-36 33 -33 l32 3 2 -60 c1 -36 -6 -86 -18 -124 -10 -35 -19 -78 -19 -97 0 -21
-5 -34 -13 -34 -13 0 -52 24 -75 47 -7 7 -16 13 -20 13 -41 -2 -66 -99 -35
-137 18 -22 42 -22 121 2 22 7 22 5 21 -46 -2 -36 -8 -60 -21 -73 -14 -15 -15
-22 -6 -28 17 -10 -39 -57 -69 -58 -12 0 -28 -3 -36 -6 -9 -3 -22 8 -36 31
-21 36 -21 43 -20 538 0 283 4 490 9 474 5 -15 20 -41 34 -58z m6516 -604 c0
-23 -1 -23 -30 6 -28 29 -30 29 -59 15 -23 -12 -28 -20 -23 -38 8 -33 21 -39
70 -32 l42 6 1 -53 c1 -30 2 -237 3 -460 l1 -407 -32 37 c-18 20 -30 42 -28
49 3 7 -2 15 -10 18 -8 4 -15 14 -15 24 0 10 -6 20 -13 23 -20 7 -19 75 0 108
16 27 16 30 -4 66 -12 21 -28 38 -35 38 -7 0 -13 9 -14 20 -2 46 -3 47 -33 40
-22 -5 -30 -2 -35 11 -4 10 -3 21 2 26 5 5 7 29 5 53 -4 27 1 59 12 88 9 24
18 64 19 88 1 24 8 45 15 47 7 2 30 -10 51 -27 43 -35 66 -33 82 8 17 40 16
62 -1 93 -14 25 -20 27 -51 22 -19 -4 -43 -11 -53 -16 -31 -16 -42 -3 -41 46
0 30 7 53 19 66 15 16 16 23 7 29 -18 11 45 58 84 63 34 5 64 -22 64 -57z
m-6650 -1459 l0 -204 -35 -31 c-50 -44 -72 -41 -72 7 0 21 -8 62 -18 91 -11
33 -15 70 -12 96 2 24 0 48 -5 53 -16 16 1 32 33 32 28 0 33 7 30 43 -1 9 4
17 12 17 19 0 60 68 53 86 -3 8 -1 14 4 14 6 0 10 -79 10 -204z m6644 -1980
c30 -63 20 -72 -23 -23 -29 32 -30 32 -58 15 -20 -12 -27 -23 -24 -40 4 -31
19 -39 61 -32 19 4 39 7 44 8 5 0 9 -197 10 -457 0 -251 -1 -457 -4 -456 -13
1 -54 64 -53 80 1 9 -5 20 -13 23 -8 3 -14 12 -14 20 0 7 -6 16 -13 19 -16 6
-22 93 -7 102 12 7 25 -40 15 -56 -6 -8 2 -9 26 -4 46 10 49 12 49 43 0 44
-14 58 -44 44 -21 -10 -26 -9 -26 3 0 22 -38 80 -52 80 -7 0 -13 9 -14 20 -2
45 -4 47 -29 43 -30 -6 -54 17 -37 34 7 7 9 28 6 53 -4 26 0 59 11 90 9 28 17
69 17 93 1 52 22 56 72 12 30 -27 37 -29 55 -18 34 21 45 79 24 121 -12 25
-17 27 -56 21 -23 -4 -48 -11 -54 -16 -24 -19 -38 -2 -37 46 0 28 7 53 18 64
9 11 14 26 11 34 -10 26 46 59 111 67 7 0 19 -14 28 -33z m-6644 -171 c0 -32
-2 -35 -30 -35 -35 0 -39 -18 -10 -45 11 -10 20 -26 20 -37 0 -10 5 -18 10
-18 6 0 10 -71 10 -192 -1 -166 -3 -190 -14 -175 -10 13 -12 27 -5 49 5 17 5
48 0 68 -5 21 -5 44 0 51 5 8 9 23 9 33 0 20 0 20 -14 0 -14 -18 -15 -18 -25
9 -15 38 -18 106 -6 108 6 1 15 -9 22 -21 l12 -24 6 27 c8 30 0 61 -14 53 -5
-3 -15 4 -23 17 -19 29 -30 85 -18 92 6 3 10 14 10 24 0 17 34 49 53 50 4 1 7
-15 7 -34z m-65 -755 c4 -6 14 -10 23 -8 39 6 42 -7 42 -192 l0 -178 -29 -31
c-32 -34 -71 -104 -71 -126 0 -9 -9 -15 -22 -15 -87 1 -133 -24 -148 -81 -12
-43 -50 -74 -50 -41 0 10 5 23 12 30 7 7 12 38 11 75 -2 90 -5 110 -22 125
-12 10 -13 15 -3 18 6 3 10 10 7 15 -3 4 3 25 13 46 11 21 22 59 26 85 4 26
11 50 17 53 5 4 9 19 9 36 0 17 8 36 20 46 11 10 20 22 20 27 0 5 11 24 26 43
22 29 30 33 74 33 61 0 74 16 20 25 -22 4 -38 11 -34 16 7 12 51 11 59 -1z
m180 -119 c3 -5 34 -13 70 -16 36 -4 65 -12 65 -18 0 -12 -138 -147 -151 -147
-5 0 -9 43 -9 95 0 85 8 113 25 86z m-229 -612 c1 -8 3 -18 4 -24 1 -5 2 -13
1 -17 0 -4 6 -23 14 -42 8 -19 15 -55 15 -80 0 -25 5 -48 10 -51 16 -10 11
-58 -10 -92 -23 -38 -25 -38 -73 -18 -38 16 -48 32 -40 64 3 12 1 21 -5 21 -6
0 -14 9 -17 21 -5 16 -10 18 -21 8 -12 -10 -11 -16 7 -45 11 -19 16 -34 11
-34 -14 0 -59 55 -67 82 -4 13 -14 30 -22 40 -13 14 -13 20 1 47 9 16 16 46
16 66 0 23 5 35 14 35 8 0 16 -3 19 -7 2 -5 2 -2 0 6 -2 10 5 12 33 6 20 -3
40 -3 43 2 10 13 45 32 56 29 6 -1 11 -9 11 -17z m6994 11 c0 -5 9 -10 20 -10
11 0 20 -5 20 -11 0 -7 14 -8 40 -4 31 5 39 4 37 -7 -2 -7 -2 -10 0 -5 3 4 12
7 20 7 12 0 14 -7 10 -28 -3 -16 0 -41 9 -56 8 -16 14 -34 14 -41 0 -18 -48
-107 -70 -129 -28 -29 -36 -12 -12 22 28 39 11 60 -22 27 -17 -17 -22 -31 -18
-54 3 -24 0 -32 -14 -37 -11 -3 -30 -11 -43 -17 -20 -10 -26 -8 -48 17 -21 25
-24 36 -19 70 4 23 10 68 14 101 4 33 13 70 20 83 7 12 10 22 7 22 -4 0 -3 6
2 13 4 6 6 20 5 30 -2 10 3 17 12 17 9 0 16 -4 16 -10z m-7206 -206 c14 -15
26 -32 26 -39 0 -6 16 -28 35 -48 19 -20 35 -39 35 -42 0 -4 -15 -5 -32 -3
-31 3 -33 1 -36 -30 -4 -39 -21 -38 -40 1 -7 15 -17 27 -23 27 -5 0 -8 15 -8
33 1 17 3 24 6 15 2 -10 9 -18 14 -18 17 0 9 31 -13 54 -30 30 -48 62 -41 70
14 14 52 4 77 -20z m6980 -280 c-4 -86 -83 -224 -128 -224 -9 0 -16 -4 -16
-10 0 -5 -8 -10 -18 -10 -14 0 -20 14 -29 63 -6 34 -9 74 -6 89 6 29 67 83 82
73 5 -3 12 4 16 15 3 11 16 22 28 25 12 2 31 6 42 8 11 3 22 5 25 6 3 0 5 -15
4 -35z m-6477 4 c10 -13 25 -24 33 -26 7 -2 27 -13 43 -24 29 -21 30 -22 24
-99 -6 -96 -11 -105 -43 -84 -13 8 -24 13 -24 11 0 -11 -47 42 -72 81 -29 45
-37 67 -42 126 -4 36 -3 37 29 37 23 0 40 -7 52 -22z m721 -176 c2 -7 -10 -17
-26 -23 -17 -6 -37 -24 -48 -45 l-19 -34 -125 0 c-146 0 -169 8 -125 44 25 20
40 24 109 24 45 0 88 -4 97 -9 23 -12 32 1 11 17 -15 11 -14 13 13 19 17 3 44
10 60 14 36 10 47 9 53 -7z m5067 -14 c7 -7 6 -12 -3 -15 -6 -3 -10 -9 -6 -14
3 -5 12 -5 22 0 9 5 53 9 98 9 71 -1 83 -4 109 -25 41 -36 22 -43 -127 -43
l-127 0 -16 34 c-10 21 -28 39 -46 45 -16 5 -29 15 -29 22 0 14 110 3 125 -13z
m-1618 -208 c3 -34 -18 -50 -41 -31 -11 9 -19 9 -35 -1 -17 -10 -32 -8 -92 11
-40 13 -90 23 -111 23 -27 -1 -38 4 -38 14 0 12 27 14 158 14 l157 0 2 -30z"/>
<path d="M6100 8521 c0 -4 12 -13 26 -19 26 -13 25 -32 -3 -32 -12 0 -13 -3
-4 -14 9 -10 8 -16 -3 -25 -8 -7 -17 -30 -21 -52 -6 -34 -3 -44 16 -66 19 -20
30 -24 58 -19 18 3 40 14 48 26 17 23 43 27 43 5 0 -8 4 -15 9 -15 5 0 9 21 9
48 1 73 3 86 21 106 15 18 15 19 -1 13 -9 -3 -27 2 -41 13 -13 11 -27 17 -30
13 -4 -3 -19 -1 -34 5 -41 15 -93 23 -93 13z"/>
<path d="M6145 1325 c-18 -72 -27 -86 -40 -65 -11 18 -22 2 -23 -37 -2 -48
-29 -77 -66 -67 -14 3 -48 31 -75 60 l-48 55 -16 -23 -15 -23 -68 35 c-38 19
-81 42 -96 52 -33 22 -38 22 -38 0 0 -10 25 -47 54 -83 40 -48 53 -72 50 -87
-5 -16 6 -27 60 -59 36 -21 66 -41 66 -45 0 -4 -21 -8 -47 -10 -43 -3 -48 -5
-46 -25 2 -18 -5 -24 -40 -34 -49 -13 -100 -46 -92 -60 4 -5 40 -9 81 -9 67 0
74 -2 74 -20 0 -11 2 -20 3 -20 2 0 39 9 82 20 80 21 125 18 125 -7 0 -8 -11
-38 -24 -66 -37 -83 -39 -94 -17 -100 16 -4 20 -17 26 -81 4 -42 11 -76 16
-76 4 0 20 34 36 75 25 66 30 73 50 69 18 -5 23 0 32 31 12 45 37 75 63 75 10
0 29 7 42 15 22 15 25 13 99 -66 l77 -81 37 22 c21 12 46 19 57 16 21 -5 21
-5 1 10 -14 11 -20 27 -20 57 l0 42 -45 6 c-32 5 -50 2 -61 -7 -21 -19 -27
-18 -65 11 -46 35 -77 81 -69 104 3 11 29 28 60 41 56 23 67 36 40 46 -11 5
-1 22 41 70 31 35 53 67 50 73 -4 5 -31 -3 -64 -19 -50 -25 -58 -26 -69 -13
-10 13 -16 10 -42 -19 -42 -47 -57 -29 -31 40 23 61 25 92 6 92 -8 0 -16 16
-20 41 -8 51 -42 119 -60 119 -8 0 -20 -29 -31 -75z"/>
<path d="M3335 1000 c-12 -4 -27 -15 -34 -24 -17 -20 -31 -21 -31 -1 0 8 -6
15 -14 15 -11 0 -12 -8 -5 -42 7 -27 6 -45 -1 -52 -5 -5 -10 -19 -10 -31 0
-12 -6 -27 -12 -34 -11 -11 -10 -13 4 -8 9 3 28 -3 41 -13 13 -11 27 -16 31
-13 3 4 16 1 29 -5 12 -6 40 -13 62 -16 l40 -5 -27 22 c-31 26 -35 37 -13 37
9 0 15 6 14 13 -2 6 5 29 14 51 22 50 22 56 -8 89 -27 28 -45 32 -80 17z"/>
<path d="M3053 823 c-41 -5 -58 -25 -44 -52 14 -26 14 -27 -6 -47 -13 -12 -14
-16 -3 -12 8 2 30 -6 48 -19 l34 -23 26 20 c25 20 41 43 61 86 5 12 18 24 27
28 16 6 16 9 4 16 -10 6 -20 4 -31 -6 -20 -18 -33 -18 -49 1 -7 8 -18 14 -24
13 -6 0 -25 -3 -43 -5z"/>
<path d="M831 8593 c-6 -21 -11 -43 -11 -49 0 -6 -7 -17 -16 -25 -14 -11 -13
-15 8 -31 13 -9 30 -18 39 -18 21 0 99 75 99 95 0 17 -67 65 -92 65 -11 0 -21
-13 -27 -37z"/>
</g>
</svg>
