<svg id="svg" version="1.1" xmlns="http://www.w3.org/2000/svg" xmlns:xlink="http://www.w3.org/1999/xlink" width="400" height="428.8840262582057" viewBox="0, 0, 400,428.8840262582057"><g id="svgg"><path id="path0" d="M65.400 0.452 C 64.300 0.651,63.040 0.843,62.600 0.878 C 62.160 0.913,61.620 1.066,61.400 1.219 C 61.180 1.371,60.280 1.724,59.400 2.003 C 50.932 4.688,41.726 14.268,40.551 21.618 C 40.412 22.488,40.158 23.200,39.986 23.200 C 39.815 23.200,39.768 23.557,39.883 23.994 C 39.997 24.431,39.975 25.087,39.835 25.452 C 39.350 26.717,39.573 86.417,40.069 88.073 C 42.681 96.792,55.969 96.341,58.273 87.456 C 58.672 85.917,58.794 78.760,58.805 56.066 C 58.819 28.544,58.866 26.566,59.547 25.035 C 60.547 22.784,62.210 20.913,64.041 19.979 C 66.438 18.756,372.729 18.736,375.107 19.959 C 377.075 20.971,378.568 22.591,379.568 24.800 L 380.382 26.600 380.382 214.400 L 380.382 402.200 379.568 404.000 C 378.220 406.977,374.508 410.034,372.961 409.440 C 372.653 409.322,372.400 409.354,372.400 409.513 C 372.400 410.317,65.625 409.629,64.040 408.821 C 62.210 407.887,60.547 406.016,59.547 403.765 C 58.866 402.233,58.819 400.251,58.805 372.513 C 58.793 348.730,58.683 342.540,58.247 341.089 C 55.759 332.824,44.122 331.995,40.536 339.828 L 39.590 341.895 39.600 372.247 C 39.612 405.919,39.626 406.126,42.193 411.400 C 46.746 420.752,55.521 427.062,65.856 428.417 C 71.892 429.209,374.197 428.740,376.511 427.936 C 377.562 427.571,378.552 427.227,378.711 427.172 C 378.870 427.118,379.324 426.988,379.719 426.885 C 387.018 424.976,394.586 417.616,397.902 409.200 L 399.400 405.400 399.400 214.400 L 399.400 23.400 397.906 19.600 C 394.303 10.433,388.101 4.745,378.000 1.346 L 374.600 0.201 221.000 0.146 C 130.833 0.113,66.574 0.239,65.400 0.452 M217.000 114.443 C 216.120 114.665,214.545 114.791,213.500 114.723 C 212.455 114.656,211.600 114.735,211.600 114.900 C 211.600 115.065,211.119 115.200,210.531 115.200 C 198.368 115.200,179.953 125.453,169.437 138.079 C 164.362 144.172,157.600 158.799,157.600 163.684 C 157.600 164.078,157.456 164.400,157.280 164.400 C 157.104 164.400,157.034 165.030,157.124 165.800 C 157.214 166.570,157.118 167.200,156.911 167.200 C 156.700 167.200,156.613 168.145,156.712 169.348 C 156.823 170.680,156.721 171.601,156.445 171.772 C 155.900 172.109,155.852 176.860,156.376 178.572 C 156.583 179.247,156.951 181.510,157.194 183.600 C 157.634 187.388,158.503 191.481,159.189 193.000 C 159.387 193.440,160.211 195.510,161.018 197.600 C 164.474 206.545,171.797 216.018,180.492 222.791 C 183.191 224.894,183.311 224.698,178.036 226.792 C 156.684 235.267,139.291 251.958,132.381 270.605 C 131.445 273.132,130.515 275.200,130.315 275.200 C 130.116 275.200,130.047 275.353,130.163 275.540 C 130.417 275.950,129.556 280.799,129.229 280.803 C 129.103 280.804,128.942 282.196,128.872 283.896 C 128.801 285.595,128.616 287.169,128.460 287.393 C 128.304 287.617,128.243 290.815,128.323 294.501 L 128.469 301.202 219.534 301.101 L 310.600 301.000 310.593 293.400 C 310.589 289.220,310.444 284.900,310.270 283.800 C 310.096 282.700,309.898 281.440,309.828 281.000 C 309.759 280.560,309.599 279.930,309.471 279.600 C 308.886 278.085,308.387 275.544,308.606 275.191 C 308.739 274.976,308.689 274.800,308.497 274.800 C 308.304 274.800,307.824 273.765,307.430 272.500 C 301.648 253.930,281.626 234.498,259.900 226.372 C 255.687 224.796,255.720 225.031,259.325 222.271 C 270.088 214.026,278.666 200.666,281.198 188.200 C 281.466 186.880,281.778 185.530,281.891 185.200 C 282.617 183.076,283.013 170.412,282.422 168.219 C 282.182 167.329,281.919 165.880,281.839 165.000 C 281.758 164.120,281.591 163.130,281.466 162.800 C 280.876 161.236,280.389 158.741,280.606 158.391 C 280.739 158.176,280.689 158.000,280.497 158.000 C 280.304 158.000,279.826 156.965,279.435 155.700 C 275.802 143.943,264.600 130.434,252.800 123.582 C 245.283 119.216,233.849 115.231,228.767 115.205 C 228.198 115.202,227.629 115.096,227.501 114.968 C 227.373 114.840,226.128 114.687,224.734 114.628 C 223.341 114.569,221.390 114.413,220.400 114.280 C 219.410 114.148,217.880 114.221,217.000 114.443 M6.873 118.361 C -1.337 121.196,-1.583 132.019,6.487 135.380 C 8.348 136.156,84.599 136.329,87.353 135.564 C 89.275 135.031,92.610 131.981,93.271 130.154 C 93.540 129.409,93.872 128.800,94.007 128.800 C 94.452 128.800,93.721 124.194,93.079 122.953 C 92.069 121.000,89.441 118.902,87.151 118.223 C 83.673 117.190,9.896 117.317,6.873 118.361 M231.254 135.125 C 246.737 139.084,259.227 151.782,262.615 167.008 C 262.982 168.659,263.182 170.271,263.059 170.592 C 262.936 170.912,263.007 171.281,263.217 171.411 C 264.133 171.977,263.184 184.827,262.098 186.558 C 261.946 186.801,261.815 187.180,261.806 187.400 C 261.675 190.979,255.709 200.654,250.545 205.663 C 244.897 211.141,231.612 217.967,228.170 217.160 C 227.966 217.112,227.482 217.212,227.093 217.382 C 226.705 217.552,225.940 217.605,225.393 217.501 C 224.847 217.396,224.400 217.466,224.400 217.655 C 224.400 217.845,222.240 218.000,219.600 218.000 C 216.960 218.000,214.800 217.865,214.799 217.700 C 214.798 217.535,213.692 217.368,212.340 217.328 C 210.988 217.289,209.773 217.109,209.641 216.928 C 209.508 216.748,208.871 216.561,208.224 216.514 C 206.969 216.423,201.898 214.509,198.600 212.883 C 193.172 210.206,186.081 203.833,182.707 198.600 C 179.587 193.759,176.790 187.386,177.373 186.443 C 177.501 186.237,177.434 186.008,177.224 185.934 C 176.091 185.535,175.499 173.371,176.376 168.530 C 178.850 154.889,187.676 143.771,200.937 137.593 C 203.799 136.260,205.616 135.729,213.000 134.064 C 216.496 133.277,226.240 133.843,231.254 135.125 M6.604 176.640 C -1.075 179.451,-1.553 189.369,5.800 193.337 L 7.400 194.200 47.200 194.200 L 87.000 194.200 88.605 193.340 C 96.059 189.348,95.489 179.381,87.650 176.617 C 85.087 175.714,9.077 175.735,6.604 176.640 M6.200 234.748 C -2.472 238.893,-0.857 250.454,8.610 252.004 C 11.811 252.528,82.589 252.528,85.790 252.004 C 95.286 250.449,96.946 239.134,88.311 234.819 L 85.872 233.600 47.236 233.600 L 8.600 233.601 6.200 234.748 M224.663 237.500 C 224.562 237.665,226.372 237.823,228.686 237.851 C 230.999 237.878,233.006 238.058,233.146 238.251 C 233.286 238.443,234.390 238.654,235.600 238.720 C 236.810 238.785,237.857 239.000,237.926 239.197 C 237.995 239.394,238.288 239.464,238.576 239.354 C 239.308 239.073,243.282 240.136,249.400 242.248 C 266.328 248.091,280.048 259.134,286.477 272.092 C 288.082 275.327,290.463 281.974,290.181 282.431 C 289.691 283.224,148.399 282.893,148.405 282.100 C 148.466 274.121,160.068 258.909,172.400 250.639 C 179.707 245.738,198.114 238.234,199.987 239.392 C 200.184 239.514,200.444 239.453,200.565 239.257 C 200.855 238.788,207.001 237.838,207.789 238.140 C 208.125 238.269,208.400 238.174,208.400 237.929 C 208.400 237.621,209.290 237.559,211.299 237.727 C 213.189 237.885,213.990 237.838,213.599 237.591 C 213.206 237.343,215.037 237.210,218.924 237.206 C 222.182 237.203,224.764 237.335,224.663 237.500 M8.131 292.418 C -1.128 294.248,-2.096 308.077,6.908 309.881 C 7.518 310.003,8.086 310.215,8.170 310.352 C 8.254 310.488,26.116 310.510,47.862 310.400 L 87.400 310.200 89.286 309.091 C 91.372 307.865,92.992 305.984,93.412 304.300 C 93.563 303.695,93.817 303.200,93.977 303.200 C 94.137 303.200,94.116 302.075,93.931 300.700 C 93.354 296.410,90.302 293.199,86.045 292.403 C 83.428 291.913,10.610 291.927,8.131 292.418 " stroke="none" fill="#040404" fill-rule="evenodd"></path><path id="path1" d="M382.000 2.306 C 382.770 2.711,383.895 3.368,384.500 3.767 C 385.122 4.177,385.600 4.302,385.600 4.054 C 385.600 3.583,383.232 2.271,381.600 1.837 C 380.905 1.653,381.027 1.796,382.000 2.306 M53.900 3.429 C 53.295 3.757,52.800 4.200,52.800 4.413 C 52.800 4.954,52.876 4.925,54.400 3.800 C 55.893 2.698,55.620 2.495,53.900 3.429 M386.019 4.300 C 386.030 4.465,387.026 5.308,388.233 6.173 C 389.439 7.038,391.231 8.605,392.213 9.656 C 393.196 10.706,394.000 11.473,394.000 11.359 C 394.000 10.732,391.183 7.811,389.150 6.331 C 387.857 5.389,386.800 4.480,386.800 4.310 C 386.800 4.139,386.620 4.000,386.400 4.000 C 386.180 4.000,386.009 4.135,386.019 4.300 M47.944 8.039 C 46.545 9.380,45.602 10.415,45.849 10.339 C 46.510 10.135,51.312 5.600,50.867 5.600 C 50.658 5.600,49.343 6.697,47.944 8.039 M44.000 12.400 C 42.842 14.026,43.180 14.364,44.364 12.764 C 44.862 12.089,45.184 11.451,45.079 11.346 C 44.973 11.240,44.488 11.715,44.000 12.400 M394.409 12.313 C 394.414 12.471,394.761 13.047,395.182 13.594 C 396.074 14.756,396.699 14.468,395.936 13.247 C 395.411 12.406,394.393 11.783,394.409 12.313 M41.196 17.300 C 40.347 18.692,40.140 19.808,40.807 19.396 C 41.030 19.258,41.109 18.977,40.983 18.772 C 40.856 18.568,40.954 18.400,41.200 18.400 C 41.446 18.400,41.536 18.220,41.400 18.000 C 41.264 17.780,41.322 17.600,41.530 17.600 C 41.737 17.600,42.001 17.240,42.116 16.800 C 42.419 15.642,42.101 15.815,41.196 17.300 M397.214 16.454 C 397.206 16.594,397.463 17.314,397.784 18.054 C 398.106 18.794,398.369 19.130,398.370 18.800 C 398.372 18.224,397.243 15.934,397.214 16.454 M67.800 19.200 C 67.664 19.420,67.923 19.600,68.376 19.600 C 68.829 19.600,69.200 19.420,69.200 19.200 C 69.200 18.980,68.941 18.800,68.624 18.800 C 68.307 18.800,67.936 18.980,67.800 19.200 M369.600 19.200 C 369.600 19.420,370.061 19.600,370.624 19.600 C 371.204 19.600,371.540 19.427,371.400 19.200 C 371.264 18.980,370.803 18.800,370.376 18.800 C 369.949 18.800,369.600 18.980,369.600 19.200 M62.031 21.836 C 60.872 22.810,60.430 23.636,61.100 23.571 C 61.445 23.538,63.786 20.800,63.470 20.800 C 63.355 20.800,62.708 21.266,62.031 21.836 M378.025 23.400 C 378.025 23.620,378.290 24.149,378.613 24.576 C 378.936 25.004,379.200 25.173,379.200 24.953 C 379.200 24.733,378.936 24.204,378.613 23.776 C 378.290 23.349,378.025 23.180,378.025 23.400 M38.990 56.600 C 38.990 73.320,39.040 80.102,39.100 71.670 C 39.160 63.239,39.160 49.559,39.100 41.270 C 39.039 32.982,38.990 39.880,38.990 56.600 M379.656 214.400 C 379.656 319.030,379.808 401.048,380.000 400.600 C 380.190 400.158,380.344 316.896,380.344 214.400 C 380.344 111.904,380.190 28.642,380.000 28.200 C 379.808 27.752,379.656 109.770,379.656 214.400 M57.880 89.680 C 57.492 90.356,57.257 90.991,57.358 91.091 C 57.459 91.192,57.838 90.701,58.200 90.000 C 58.562 89.299,58.797 88.664,58.722 88.589 C 58.647 88.513,58.268 89.004,57.880 89.680 M40.000 90.150 C 40.000 90.322,40.720 91.176,41.600 92.047 C 42.480 92.918,43.200 93.480,43.200 93.297 C 43.200 93.113,42.480 92.259,41.600 91.400 C 40.720 90.541,40.000 89.978,40.000 90.150 M53.800 93.537 C 53.140 93.901,52.525 94.245,52.433 94.300 C 51.629 94.783,53.015 94.710,53.963 94.219 C 54.873 93.749,55.848 92.563,55.100 92.837 C 55.045 92.857,54.460 93.172,53.800 93.537 M43.692 93.675 C 43.891 94.273,44.800 94.602,44.800 94.076 C 44.800 93.861,44.515 93.576,44.167 93.443 C 43.777 93.293,43.594 93.382,43.692 93.675 M231.920 115.280 C 232.293 115.653,232.507 115.653,232.880 115.280 C 233.253 114.907,233.147 114.800,232.400 114.800 C 231.653 114.800,231.547 114.907,231.920 115.280 M237.200 116.400 C 237.200 116.620,237.470 116.800,237.800 116.800 C 238.130 116.800,238.400 116.620,238.400 116.400 C 238.400 116.180,238.130 116.000,237.800 116.000 C 237.470 116.000,237.200 116.180,237.200 116.400 M89.400 118.616 C 89.840 118.941,90.785 119.770,91.500 120.459 C 92.215 121.148,92.800 121.521,92.800 121.287 C 92.800 120.761,89.615 117.995,89.028 118.013 C 88.793 118.020,88.960 118.291,89.400 118.616 M246.000 119.533 C 246.000 119.717,246.225 119.875,246.500 119.886 C 246.775 119.896,247.360 120.029,247.800 120.180 C 248.334 120.364,248.267 120.251,247.600 119.842 C 246.460 119.142,246.000 119.054,246.000 119.533 M190.012 120.384 C 189.688 120.589,189.578 120.901,189.766 121.078 C 189.955 121.255,190.190 121.174,190.289 120.898 C 190.388 120.621,190.633 120.497,190.834 120.621 C 191.035 120.745,191.200 120.657,191.200 120.424 C 191.200 119.905,190.791 119.892,190.012 120.384 M93.043 122.567 C 93.176 122.915,93.461 123.200,93.676 123.200 C 94.202 123.200,93.873 122.291,93.275 122.092 C 92.982 121.994,92.893 122.177,93.043 122.567 M184.500 123.612 C 183.345 124.274,182.400 124.980,182.400 125.181 C 182.400 125.466,186.008 123.303,186.767 122.563 C 187.184 122.155,186.436 122.501,184.500 123.612 M255.600 124.790 C 255.600 125.004,256.140 125.459,256.800 125.800 C 258.242 126.546,258.408 125.960,257.014 125.046 C 255.874 124.299,255.600 124.249,255.600 124.790 M94.306 125.100 C 94.228 125.265,94.282 126.120,94.425 127.000 L 94.686 128.600 94.743 126.700 C 94.796 124.933,94.645 124.381,94.306 125.100 M177.200 129.000 C 176.683 129.550,176.441 130.000,176.661 130.000 C 176.881 130.000,177.483 129.550,178.000 129.000 C 178.517 128.450,178.759 128.000,178.539 128.000 C 178.319 128.000,177.717 128.450,177.200 129.000 M260.400 128.236 C 260.400 128.575,262.130 129.971,262.570 129.987 C 262.773 129.994,262.517 129.550,262.000 129.000 C 261.112 128.054,260.400 127.714,260.400 128.236 M0.400 130.142 C 0.400 130.819,1.603 132.667,2.664 133.620 C 4.440 135.215,5.200 135.729,5.200 135.335 C 5.200 135.136,4.643 134.644,3.963 134.242 C 3.283 133.840,2.203 132.686,1.563 131.677 C 0.923 130.669,0.400 129.978,0.400 130.142 M93.188 131.256 C 92.865 131.726,92.174 132.671,91.653 133.356 C 91.128 134.045,91.441 133.826,92.353 132.866 C 93.259 131.912,94.000 130.967,94.000 130.766 C 94.000 130.215,93.835 130.315,93.188 131.256 M173.068 132.646 C 172.225 133.429,171.647 134.180,171.782 134.315 C 171.917 134.450,172.784 133.805,173.708 132.880 C 175.746 130.842,175.218 130.648,173.068 132.646 M265.000 132.410 C 265.660 133.151,266.434 134.013,266.719 134.326 C 267.005 134.639,267.348 134.785,267.483 134.650 C 267.795 134.338,266.553 132.956,265.000 131.889 L 263.800 131.064 265.000 132.410 M88.812 135.184 C 88.488 135.389,88.327 135.661,88.454 135.788 C 88.769 136.103,90.000 135.601,90.000 135.157 C 90.000 134.701,89.560 134.711,88.812 135.184 M209.200 135.200 C 209.200 135.420,209.470 135.600,209.800 135.600 C 210.130 135.600,210.400 135.420,210.400 135.200 C 210.400 134.980,210.130 134.800,209.800 134.800 C 209.470 134.800,209.200 134.980,209.200 135.200 M169.862 136.331 C 169.133 137.137,168.972 137.788,169.598 137.401 C 170.015 137.143,170.939 135.600,170.676 135.600 C 170.592 135.600,170.226 135.929,169.862 136.331 M269.049 136.945 C 269.809 137.987,270.400 138.294,270.400 137.646 C 270.400 137.451,269.927 136.982,269.349 136.604 L 268.299 135.915 269.049 136.945 M200.400 138.200 C 199.850 138.514,199.580 138.772,199.800 138.772 C 200.020 138.772,200.650 138.514,201.200 138.200 C 201.750 137.886,202.020 137.628,201.800 137.628 C 201.580 137.628,200.950 137.886,200.400 138.200 M167.944 138.700 C 166.446 140.508,166.194 140.932,166.721 140.758 C 167.007 140.664,167.609 140.004,168.060 139.293 C 168.945 137.896,168.881 137.569,167.944 138.700 M270.643 138.967 C 270.776 139.315,271.061 139.600,271.276 139.600 C 271.802 139.600,271.473 138.691,270.875 138.492 C 270.582 138.394,270.493 138.577,270.643 138.967 M240.683 139.569 C 241.631 140.460,242.000 140.599,242.000 140.064 C 242.000 139.880,241.505 139.505,240.900 139.233 L 239.800 138.737 240.683 139.569 M196.605 140.085 C 194.671 141.206,194.100 142.139,195.900 141.236 C 196.835 140.767,197.600 140.207,197.600 139.992 C 197.600 139.513,197.590 139.514,196.605 140.085 M272.854 141.800 C 274.354 144.468,274.580 144.800,274.896 144.800 C 275.452 144.800,275.210 144.128,274.300 143.142 C 273.805 142.605,273.075 141.724,272.677 141.183 C 272.275 140.637,272.353 140.911,272.854 141.800 M244.000 141.600 C 244.550 142.030,245.159 142.386,245.354 142.391 C 245.549 142.396,245.250 142.040,244.691 141.600 C 244.131 141.160,243.522 140.804,243.337 140.809 C 243.152 140.814,243.450 141.170,244.000 141.600 M165.131 142.692 C 164.588 143.521,164.027 144.560,163.883 145.000 C 163.635 145.763,163.645 145.765,164.111 145.050 C 164.380 144.638,165.014 143.672,165.520 142.903 C 166.026 142.135,166.367 141.434,166.278 141.345 C 166.190 141.256,165.673 141.862,165.131 142.692 M191.900 143.414 C 190.855 144.180,190.000 144.986,190.000 145.204 C 190.000 145.834,190.205 145.705,192.222 143.800 C 194.504 141.644,194.432 141.556,191.900 143.414 M248.000 144.253 C 248.000 144.490,249.170 145.762,250.600 147.082 C 252.030 148.401,253.200 149.367,253.200 149.229 C 253.200 149.090,252.030 147.817,250.600 146.400 C 249.170 144.983,248.000 144.017,248.000 144.253 M275.200 145.414 C 275.200 145.532,275.738 146.567,276.396 147.714 C 277.853 150.255,277.978 149.920,276.593 147.187 C 275.695 145.415,275.200 144.785,275.200 145.414 M161.843 148.233 C 161.513 149.093,161.533 149.200,162.024 149.200 C 162.257 149.200,162.336 149.020,162.200 148.800 C 162.064 148.580,162.143 148.400,162.376 148.400 C 162.609 148.400,162.800 148.220,162.800 148.000 C 162.800 147.367,162.111 147.535,161.843 148.233 M185.119 150.100 C 183.408 152.380,183.411 152.648,185.129 150.900 C 186.048 149.964,186.800 149.109,186.800 149.000 C 186.800 148.417,185.978 148.955,185.119 150.100 M253.600 150.227 C 253.600 150.673,255.702 153.200,256.073 153.200 C 256.513 153.200,254.348 150.021,253.900 150.009 C 253.735 150.004,253.600 150.102,253.600 150.227 M278.406 152.271 C 278.418 152.884,279.155 153.778,279.426 153.507 C 279.574 153.359,279.404 152.947,279.048 152.590 C 278.691 152.234,278.403 152.091,278.406 152.271 M256.400 153.733 C 256.400 154.228,258.597 157.988,258.890 157.994 C 259.049 157.997,258.625 157.055,257.947 155.900 C 256.611 153.623,256.400 153.327,256.400 153.733 M182.000 154.437 C 182.000 154.677,181.640 155.331,181.200 155.891 C 180.325 157.003,180.092 157.979,180.905 157.129 C 182.254 155.718,183.074 154.000,182.400 154.000 C 182.180 154.000,182.000 154.197,182.000 154.437 M179.665 159.017 C 178.995 160.488,179.123 160.802,179.847 159.465 C 180.186 158.840,180.388 158.254,180.296 158.163 C 180.205 158.071,179.921 158.456,179.665 159.017 M258.806 158.700 C 258.820 159.357,259.576 160.156,259.878 159.834 C 260.055 159.645,259.974 159.410,259.698 159.311 C 259.421 159.212,259.297 158.967,259.421 158.766 C 259.545 158.565,259.457 158.400,259.224 158.400 C 258.991 158.400,258.803 158.535,258.806 158.700 M156.800 162.800 C 156.800 163.547,156.907 163.653,157.280 163.280 C 157.653 162.907,157.653 162.693,157.280 162.320 C 156.907 161.947,156.800 162.053,156.800 162.800 M176.400 169.000 C 176.400 169.330,176.580 169.600,176.800 169.600 C 177.020 169.600,177.200 169.330,177.200 169.000 C 177.200 168.670,177.020 168.400,176.800 168.400 C 176.580 168.400,176.400 168.670,176.400 169.000 M176.093 172.400 C 176.093 173.170,176.175 173.485,176.276 173.100 C 176.376 172.715,176.376 172.085,176.276 171.700 C 176.175 171.315,176.093 171.630,176.093 172.400 M262.924 175.800 C 262.926 177.120,263.001 177.612,263.090 176.893 C 263.179 176.174,263.177 175.094,263.086 174.493 C 262.995 173.892,262.922 174.480,262.924 175.800 M8.475 175.408 C 8.743 175.676,85.663 175.670,85.931 175.402 C 86.042 175.291,68.613 175.200,47.200 175.200 C 25.787 175.200,8.360 175.294,8.475 175.408 M88.400 176.373 C 88.400 176.578,88.751 176.857,89.180 176.994 C 89.608 177.130,90.508 177.754,91.180 178.381 C 91.851 179.008,92.400 179.388,92.400 179.226 C 92.400 178.821,89.223 176.000,88.767 176.000 C 88.565 176.000,88.400 176.168,88.400 176.373 M4.450 176.705 C 3.839 176.922,1.630 179.238,1.612 179.682 C 1.605 179.837,2.005 179.561,2.500 179.070 C 2.995 178.578,3.839 177.871,4.376 177.497 C 5.381 176.798,5.422 176.360,4.450 176.705 M92.800 180.400 C 92.800 180.620,92.991 180.800,93.224 180.800 C 93.457 180.800,93.536 180.980,93.400 181.200 C 93.264 181.420,93.343 181.600,93.576 181.600 C 94.067 181.600,94.087 181.493,93.757 180.633 C 93.489 179.935,92.800 179.767,92.800 180.400 M156.000 181.824 C 156.000 182.387,156.163 182.746,156.362 182.623 C 156.562 182.500,156.631 182.039,156.516 181.600 C 156.228 180.499,156.000 180.598,156.000 181.824 M176.400 182.600 C 176.400 182.930,176.580 183.200,176.800 183.200 C 177.020 183.200,177.200 182.930,177.200 182.600 C 177.200 182.270,177.020 182.000,176.800 182.000 C 176.580 182.000,176.400 182.270,176.400 182.600 M94.329 185.230 C 94.243 186.126,94.314 186.947,94.487 187.054 C 94.659 187.160,94.800 186.427,94.800 185.424 C 94.800 183.160,94.536 183.051,94.329 185.230 M176.800 184.600 C 176.800 184.930,176.980 185.200,177.200 185.200 C 177.420 185.200,177.600 184.930,177.600 184.600 C 177.600 184.270,177.420 184.000,177.200 184.000 C 176.980 184.000,176.800 184.270,176.800 184.600 M156.800 187.400 C 156.800 187.730,156.980 188.000,157.200 188.000 C 157.420 188.000,157.600 187.730,157.600 187.400 C 157.600 187.070,157.420 186.800,157.200 186.800 C 156.980 186.800,156.800 187.070,156.800 187.400 M93.744 188.243 C 93.593 188.659,93.139 189.478,92.735 190.062 C 92.331 190.646,92.000 191.240,92.000 191.382 C 92.000 191.870,93.974 189.511,94.224 188.725 C 94.549 187.702,94.103 187.253,93.744 188.243 M259.833 190.257 C 259.499 191.130,259.943 191.536,260.416 190.788 C 260.889 190.040,260.899 189.600,260.443 189.600 C 260.246 189.600,259.972 189.896,259.833 190.257 M179.029 190.800 C 179.176 191.350,179.464 192.070,179.667 192.400 C 179.925 192.817,179.957 192.695,179.771 192.000 C 179.624 191.450,179.336 190.730,179.133 190.400 C 178.875 189.983,178.843 190.105,179.029 190.800 M157.600 191.000 C 157.600 191.330,157.780 191.600,158.000 191.600 C 158.220 191.600,158.400 191.330,158.400 191.000 C 158.400 190.670,158.220 190.400,158.000 190.400 C 157.780 190.400,157.600 190.670,157.600 191.000 M2.000 191.573 C 2.000 191.979,4.120 193.600,4.651 193.600 C 4.831 193.600,4.387 193.060,3.664 192.400 C 2.258 191.116,2.000 190.987,2.000 191.573 M89.400 193.410 C 88.520 193.952,87.980 194.396,88.200 194.396 C 88.684 194.397,91.200 192.896,91.200 192.606 C 91.200 192.309,91.159 192.327,89.400 193.410 M257.878 195.005 C 257.512 195.772,257.295 196.400,257.396 196.400 C 257.670 196.400,258.884 193.951,258.701 193.768 C 258.614 193.681,258.244 194.238,257.878 195.005 M180.873 195.000 C 181.320 195.981,182.000 196.361,182.000 195.629 C 182.000 195.263,180.898 194.000,180.580 194.000 C 180.490 194.000,180.622 194.450,180.873 195.000 M279.379 195.966 C 279.503 196.167,279.448 196.392,279.255 196.466 C 279.063 196.540,278.768 197.042,278.600 197.581 C 278.328 198.454,278.361 198.496,278.894 197.963 C 279.714 197.143,280.177 195.600,279.603 195.600 C 279.356 195.600,279.255 195.765,279.379 195.966 M182.418 197.400 C 182.418 197.620,182.770 198.250,183.200 198.800 C 183.630 199.350,183.982 199.620,183.982 199.400 C 183.982 199.180,183.630 198.550,183.200 198.000 C 182.770 197.450,182.418 197.180,182.418 197.400 M255.404 198.796 C 254.774 199.454,254.395 200.128,254.562 200.295 C 254.855 200.589,255.647 199.749,256.443 198.300 C 256.995 197.296,256.711 197.432,255.404 198.796 M276.712 201.931 C 276.333 202.716,276.095 203.429,276.182 203.516 C 276.410 203.743,277.673 201.210,277.524 200.826 C 277.456 200.650,277.090 201.147,276.712 201.931 M253.201 201.798 C 252.686 202.348,252.365 202.898,252.488 203.021 C 252.612 203.145,253.105 202.696,253.584 202.023 C 254.638 200.542,254.473 200.445,253.201 201.798 M188.000 204.600 C 190.229 206.857,191.108 207.501,189.774 205.900 C 188.001 203.771,186.615 202.400,186.235 202.400 C 186.011 202.400,186.805 203.390,188.000 204.600 M274.022 206.500 L 273.096 208.200 274.348 206.875 C 275.576 205.576,275.922 204.800,275.274 204.800 C 275.094 204.800,274.531 205.565,274.022 206.500 M164.009 205.500 C 164.014 205.665,164.385 206.250,164.833 206.800 L 165.648 207.800 165.014 206.500 C 164.411 205.265,163.989 204.845,164.009 205.500 M247.762 207.262 L 247.000 208.124 248.100 207.416 C 249.234 206.686,249.449 206.400,248.862 206.400 C 248.676 206.400,248.181 206.788,247.762 207.262 M191.600 207.800 C 191.874 208.130,192.278 208.400,192.498 208.400 C 192.721 208.400,192.678 208.135,192.400 207.800 C 192.126 207.470,191.722 207.200,191.502 207.200 C 191.279 207.200,191.322 207.465,191.600 207.800 M244.400 209.681 C 242.719 211.240,242.961 211.191,245.700 209.420 C 246.736 208.749,247.164 207.993,246.500 208.006 C 246.335 208.009,245.390 208.762,244.400 209.681 M166.413 209.467 C 166.430 209.913,167.221 210.864,168.188 211.600 C 168.920 212.158,168.915 212.103,168.108 210.807 C 167.276 209.471,166.386 208.767,166.413 209.467 M270.873 211.229 C 270.148 212.093,269.724 212.800,269.930 212.800 C 270.345 212.800,272.567 210.033,272.336 209.803 C 272.257 209.724,271.599 210.366,270.873 211.229 M194.800 210.192 C 194.800 210.297,195.520 210.751,196.400 211.200 C 198.383 212.212,198.500 211.974,196.577 210.840 C 195.112 209.975,194.800 209.861,194.800 210.192 M239.700 212.307 C 237.601 213.365,236.776 214.293,238.526 213.628 C 239.617 213.213,242.674 211.189,242.156 211.224 C 241.960 211.238,240.855 211.725,239.700 212.307 M267.161 215.700 L 265.447 217.800 266.956 216.400 C 268.343 215.113,269.476 213.600,269.051 213.600 C 268.954 213.600,268.103 214.545,267.161 215.700 M234.813 214.691 C 234.289 215.282,234.303 215.323,234.946 215.076 C 235.342 214.924,235.741 214.800,235.833 214.800 C 235.925 214.800,236.000 214.620,236.000 214.400 C 236.000 213.812,235.481 213.939,234.813 214.691 M171.600 215.747 C 171.600 216.105,175.341 219.593,175.525 219.408 C 175.759 219.174,172.361 215.608,171.900 215.603 C 171.735 215.601,171.600 215.666,171.600 215.747 M218.300 217.489 C 219.015 217.578,220.185 217.578,220.900 217.489 C 221.615 217.401,221.030 217.328,219.600 217.328 C 218.170 217.328,217.585 217.401,218.300 217.489 M263.183 219.449 C 262.202 220.466,261.655 221.221,261.967 221.127 C 262.489 220.969,265.515 217.600,265.135 217.600 C 265.042 217.600,264.164 218.432,263.183 219.449 M176.000 220.102 C 176.000 220.183,176.540 220.649,177.200 221.137 C 177.860 221.625,178.400 221.877,178.400 221.698 C 178.400 221.519,177.860 221.054,177.200 220.664 C 176.540 220.274,176.000 220.021,176.000 220.102 M258.918 222.923 C 257.236 224.200,256.983 224.794,257.981 225.127 C 258.273 225.224,258.397 225.119,258.257 224.892 C 258.011 224.494,258.949 223.421,260.600 222.212 C 261.040 221.889,261.220 221.630,261.000 221.636 C 260.780 221.641,259.843 222.221,258.918 222.923 M179.649 223.130 C 180.155 223.940,181.949 224.985,182.275 224.659 C 182.429 224.504,181.040 223.419,179.670 222.624 C 179.236 222.371,179.232 222.462,179.649 223.130 M262.000 226.753 C 262.000 226.948,262.360 227.201,262.800 227.316 C 263.745 227.563,263.886 226.995,262.967 226.643 C 262.128 226.321,262.000 226.335,262.000 226.753 M172.812 227.984 C 172.488 228.189,172.327 228.461,172.454 228.588 C 172.769 228.903,174.000 228.401,174.000 227.957 C 174.000 227.501,173.560 227.511,172.812 227.984 M266.000 228.339 C 266.000 228.526,266.760 229.021,267.689 229.439 C 268.617 229.858,270.327 230.772,271.489 231.471 C 272.650 232.170,273.600 232.577,273.600 232.375 C 273.600 232.174,272.115 231.265,270.300 230.356 C 268.485 229.447,266.940 228.545,266.867 228.351 C 266.696 227.901,266.000 227.892,266.000 228.339 M167.900 230.625 C 165.975 231.606,164.400 232.593,164.400 232.818 C 164.400 233.234,165.997 232.573,166.400 231.991 C 166.510 231.833,167.860 231.058,169.400 230.271 C 170.940 229.484,172.020 228.840,171.800 228.840 C 171.580 228.840,169.825 229.643,167.900 230.625 M274.000 232.726 C 274.000 232.906,274.765 233.469,275.700 233.978 L 277.400 234.903 276.000 233.668 C 274.576 232.411,274.000 232.140,274.000 232.726 M8.600 233.200 C 8.436 233.466,21.396 233.600,47.176 233.600 C 72.792 233.600,86.000 233.464,86.000 233.200 C 86.000 232.936,72.875 232.800,47.424 232.800 C 22.137 232.800,8.762 232.938,8.600 233.200 M162.800 233.729 C 160.784 234.786,157.073 237.409,155.458 238.919 L 153.800 240.469 155.700 239.157 C 156.745 238.436,157.600 237.701,157.600 237.523 C 157.600 237.345,157.756 237.200,157.947 237.200 C 158.231 237.200,163.395 233.905,163.967 233.359 C 164.288 233.052,163.791 233.210,162.800 233.729 M89.211 234.661 C 89.755 235.025,90.695 235.779,91.300 236.336 C 91.905 236.894,92.400 237.137,92.400 236.877 C 92.400 236.355,89.331 234.000,88.651 234.000 C 88.415 234.000,88.667 234.298,89.211 234.661 M2.895 235.768 C 2.074 236.520,1.493 237.227,1.604 237.337 C 1.714 237.448,2.562 236.832,3.487 235.969 C 4.412 235.106,4.993 234.400,4.779 234.400 C 4.564 234.400,3.717 235.016,2.895 235.768 M278.800 236.000 C 278.800 236.220,278.993 236.400,279.229 236.400 C 279.464 236.400,279.936 236.679,280.276 237.019 C 280.617 237.360,281.006 237.527,281.142 237.392 C 281.277 237.256,280.941 236.802,280.394 236.382 C 279.278 235.524,278.800 235.410,278.800 236.000 M210.600 238.000 C 210.460 238.227,210.796 238.400,211.376 238.400 C 211.939 238.400,212.400 238.220,212.400 238.000 C 212.400 237.780,212.051 237.600,211.624 237.600 C 211.197 237.600,210.736 237.780,210.600 238.000 M225.600 238.000 C 225.600 238.220,226.050 238.400,226.600 238.400 C 227.150 238.400,227.600 238.220,227.600 238.000 C 227.600 237.780,227.150 237.600,226.600 237.600 C 226.050 237.600,225.600 237.780,225.600 238.000 M206.800 238.400 C 206.800 238.620,207.070 238.800,207.400 238.800 C 207.730 238.800,208.000 238.620,208.000 238.400 C 208.000 238.180,207.730 238.000,207.400 238.000 C 207.070 238.000,206.800 238.180,206.800 238.400 M230.000 238.400 C 230.000 238.620,230.360 238.800,230.800 238.800 C 231.240 238.800,231.600 238.620,231.600 238.400 C 231.600 238.180,231.240 238.000,230.800 238.000 C 230.360 238.000,230.000 238.180,230.000 238.400 M283.799 239.598 C 283.934 239.817,284.440 240.203,284.922 240.456 C 285.794 240.913,285.795 240.910,285.038 240.058 C 284.275 239.198,283.336 238.850,283.799 239.598 M152.129 241.300 C 150.645 242.949,150.646 243.358,152.132 242.225 C 152.939 241.609,153.600 240.946,153.600 240.753 C 153.600 240.135,152.965 240.371,152.129 241.300 M94.514 243.000 C 94.517 244.100,94.595 244.503,94.687 243.895 C 94.779 243.286,94.777 242.386,94.682 241.895 C 94.587 241.403,94.511 241.900,94.514 243.000 M286.400 241.467 C 286.400 241.926,288.726 244.216,288.943 243.971 C 289.026 243.877,288.488 243.189,287.747 242.442 C 287.006 241.695,286.400 241.256,286.400 241.467 M147.529 245.529 C 146.581 246.414,145.945 247.278,146.116 247.449 C 146.287 247.621,147.177 247.011,148.094 246.094 C 150.265 243.923,149.776 243.434,147.529 245.529 M254.000 244.733 C 254.330 244.936,255.050 245.224,255.600 245.371 C 256.295 245.557,256.417 245.525,256.000 245.267 C 255.670 245.064,254.950 244.776,254.400 244.629 C 253.705 244.443,253.583 244.475,254.000 244.733 M181.600 245.800 C 181.050 246.114,180.780 246.372,181.000 246.372 C 181.220 246.372,181.850 246.114,182.400 245.800 C 182.950 245.486,183.220 245.228,183.000 245.228 C 182.780 245.228,182.150 245.486,181.600 245.800 M258.200 246.486 C 258.640 246.740,259.238 247.185,259.529 247.474 C 260.165 248.108,260.800 248.159,260.800 247.576 C 260.800 247.343,260.620 247.264,260.400 247.400 C 260.180 247.536,260.000 247.485,260.000 247.288 C 260.000 247.090,259.542 246.720,258.981 246.464 C 257.675 245.869,257.157 245.884,258.200 246.486 M92.612 248.100 C 91.860 249.384,91.861 249.393,92.625 248.800 C 93.518 248.108,93.985 247.528,93.994 247.100 C 94.008 246.395,93.317 246.895,92.612 248.100 M293.994 249.394 C 294.737 250.161,295.434 250.699,295.543 250.590 C 295.807 250.327,293.564 248.000,293.047 248.000 C 292.825 248.000,293.251 248.627,293.994 249.394 M262.000 248.560 C 262.000 248.835,264.891 250.442,265.067 250.266 C 265.159 250.174,264.586 249.717,263.794 249.250 C 262.349 248.397,262.000 248.263,262.000 248.560 M2.000 249.133 C 2.000 249.555,4.354 251.403,4.561 251.144 C 4.624 251.065,4.074 250.487,3.338 249.861 C 2.602 249.234,2.000 248.907,2.000 249.133 M144.120 249.509 C 143.088 250.320,141.078 253.200,141.544 253.200 C 141.721 253.200,142.106 252.750,142.400 252.200 C 142.694 251.650,143.073 251.200,143.240 251.200 C 143.408 251.200,143.930 250.660,144.400 250.000 C 145.381 248.622,145.340 248.550,144.120 249.509 M89.501 250.943 C 88.677 251.415,88.002 251.935,88.001 252.100 C 87.999 252.692,88.715 252.380,90.046 251.206 C 91.622 249.817,91.541 249.777,89.501 250.943 M172.500 250.870 C 171.785 251.312,171.200 251.846,171.200 252.057 C 171.200 252.268,171.875 251.944,172.700 251.337 C 173.525 250.729,174.275 250.180,174.367 250.116 C 175.109 249.598,173.516 250.242,172.500 250.870 M266.973 251.738 C 267.838 252.542,268.693 253.200,268.873 253.200 C 269.496 253.200,269.196 252.590,268.300 252.035 C 265.671 250.407,265.499 250.368,266.973 251.738 M168.800 253.600 C 168.030 254.248,167.580 254.778,167.800 254.778 C 168.020 254.778,168.830 254.248,169.600 253.600 C 170.370 252.952,170.820 252.422,170.600 252.422 C 170.380 252.422,169.570 252.952,168.800 253.600 M139.849 254.817 C 139.217 255.486,138.828 256.161,138.983 256.316 C 139.258 256.591,140.064 255.717,140.843 254.300 C 141.389 253.307,141.162 253.425,139.849 254.817 M271.741 255.360 C 272.809 256.400,273.798 257.135,273.939 256.995 C 274.080 256.854,273.566 256.208,272.797 255.559 C 270.374 253.515,269.719 253.391,271.741 255.360 M165.700 255.977 C 164.754 256.766,164.561 257.200,165.154 257.200 C 165.349 257.200,165.803 256.750,166.163 256.200 C 166.941 255.014,166.887 254.988,165.700 255.977 M136.833 259.433 C 136.357 260.240,136.042 260.976,136.134 261.067 C 136.226 261.159,136.690 260.574,137.167 259.767 C 137.643 258.960,137.958 258.224,137.866 258.133 C 137.774 258.041,137.310 258.626,136.833 259.433 M161.887 259.569 C 160.962 260.432,160.294 261.197,160.402 261.269 C 160.511 261.341,161.394 260.635,162.365 259.700 C 163.335 258.765,164.004 258.000,163.849 258.000 C 163.695 258.000,162.812 258.706,161.887 259.569 M301.616 259.500 C 302.128 260.435,302.694 261.200,302.874 261.200 C 303.498 261.200,303.193 260.536,301.942 259.172 L 300.684 257.800 301.616 259.500 M278.000 261.573 C 278.000 261.778,278.573 262.353,279.272 262.851 C 280.509 263.732,280.511 263.337,279.277 261.900 C 278.624 261.139,278.000 260.979,278.000 261.573 M158.571 263.256 C 157.683 264.202,157.601 264.400,158.233 264.074 C 159.199 263.575,160.199 262.466,159.928 262.195 C 159.825 262.092,159.215 262.570,158.571 263.256 M133.843 264.633 C 133.513 265.493,133.533 265.600,134.024 265.600 C 134.257 265.600,134.336 265.420,134.200 265.200 C 134.064 264.980,134.143 264.800,134.376 264.800 C 134.609 264.800,134.800 264.620,134.800 264.400 C 134.800 263.767,134.111 263.935,133.843 264.633 M156.350 266.100 C 155.852 266.815,155.008 267.985,154.475 268.700 C 153.941 269.415,153.682 270.000,153.899 270.000 C 154.257 270.000,154.710 269.396,156.978 265.900 C 157.982 264.353,157.447 264.523,156.350 266.100 M282.009 266.300 C 282.025 266.854,283.542 268.591,283.792 268.342 C 283.927 268.206,283.760 267.817,283.419 267.476 C 283.079 267.136,282.800 266.664,282.800 266.429 C 282.800 266.193,282.620 266.000,282.400 266.000 C 282.180 266.000,282.004 266.135,282.009 266.300 M306.168 268.200 C 306.345 268.640,306.581 269.315,306.692 269.700 C 306.803 270.085,307.064 270.400,307.274 270.400 C 307.789 270.400,307.244 268.785,306.470 268.019 C 305.905 267.459,305.876 267.477,306.168 268.200 M285.082 270.989 C 285.673 272.193,286.223 273.111,286.305 273.029 C 286.484 272.849,284.467 268.800,284.198 268.800 C 284.094 268.800,284.492 269.785,285.082 270.989 M152.666 271.900 C 152.169 272.990,152.145 273.181,152.578 272.600 C 152.905 272.160,153.359 271.583,153.586 271.317 C 154.084 270.736,154.116 270.400,153.674 270.400 C 153.495 270.400,153.041 271.075,152.666 271.900 M151.244 274.844 C 150.998 275.551,150.866 276.200,150.952 276.285 C 151.038 276.371,151.309 275.862,151.556 275.156 C 151.802 274.449,151.934 273.800,151.848 273.715 C 151.762 273.629,151.491 274.138,151.244 274.844 M287.206 275.900 C 287.217 276.447,287.953 277.381,288.188 277.146 C 288.503 276.831,288.001 275.600,287.557 275.600 C 287.361 275.600,287.203 275.735,287.206 275.900 M148.800 281.000 C 148.800 281.330,148.980 281.600,149.200 281.600 C 149.420 281.600,149.600 281.330,149.600 281.000 C 149.600 280.670,149.420 280.400,149.200 280.400 C 148.980 280.400,148.800 280.670,148.800 281.000 M183.900 282.300 C 203.315 282.357,235.085 282.357,254.500 282.300 C 273.915 282.243,258.030 282.196,219.200 282.196 C 180.370 282.196,164.485 282.243,183.900 282.300 M128.000 284.576 C 128.000 285.802,128.228 285.901,128.516 284.800 C 128.631 284.361,128.562 283.900,128.362 283.777 C 128.163 283.654,128.000 284.013,128.000 284.576 M127.674 295.300 C 127.633 298.765,127.735 301.600,127.900 301.601 C 128.065 301.601,128.153 299.666,128.095 297.301 C 127.907 289.615,127.750 288.867,127.674 295.300 M88.000 292.424 C 88.000 292.657,88.180 292.736,88.400 292.600 C 88.620 292.464,88.801 292.498,88.803 292.676 C 88.804 292.854,89.333 293.300,89.977 293.667 C 90.934 294.211,91.108 294.227,90.926 293.752 C 90.551 292.775,88.000 291.617,88.000 292.424 M3.033 294.011 C 2.392 294.665,2.032 295.194,2.233 295.187 C 2.648 295.173,4.800 293.356,4.800 293.019 C 4.800 292.518,4.129 292.894,3.033 294.011 M92.726 296.410 C 93.097 297.062,93.546 297.596,93.724 297.597 C 93.902 297.599,93.944 297.768,93.817 297.972 C 93.691 298.177,93.770 298.458,93.993 298.596 C 94.217 298.734,94.400 298.665,94.400 298.442 C 94.400 297.643,93.529 296.148,92.797 295.691 C 92.079 295.243,92.077 295.269,92.726 296.410 M94.514 301.400 C 94.517 302.500,94.595 302.903,94.687 302.295 C 94.779 301.686,94.777 300.786,94.682 300.295 C 94.587 299.803,94.511 300.300,94.514 301.400 M1.943 307.469 C 2.428 308.402,4.276 310.000,4.870 310.000 C 5.249 310.000,4.571 309.268,2.646 307.600 C 1.572 306.670,1.523 306.661,1.943 307.469 M91.784 307.626 C 91.639 307.861,90.791 308.581,89.900 309.226 C 89.009 309.872,88.460 310.400,88.680 310.400 C 89.284 310.400,92.400 308.053,92.400 307.597 C 92.400 307.078,92.114 307.091,91.784 307.626 M27.700 311.100 C 38.425 311.159,55.975 311.159,66.700 311.100 C 77.425 311.041,68.650 310.992,47.200 310.992 C 25.750 310.992,16.975 311.041,27.700 311.100 M52.400 334.353 C 52.400 334.548,52.760 334.801,53.200 334.916 C 54.145 335.163,54.286 334.595,53.367 334.243 C 52.528 333.921,52.400 333.935,52.400 334.353 M43.600 335.200 C 43.600 335.493,43.499 335.632,43.376 335.509 C 42.732 334.866,39.173 339.461,39.216 340.880 C 39.224 341.166,39.504 340.770,39.838 340.000 C 40.171 339.230,41.264 337.825,42.266 336.877 C 43.268 335.930,43.978 335.045,43.844 334.911 C 43.710 334.777,43.600 334.907,43.600 335.200 M56.682 337.300 C 57.133 337.795,57.787 338.740,58.135 339.400 C 58.483 340.060,58.775 340.436,58.784 340.235 C 58.813 339.567,56.773 336.400,56.313 336.400 C 56.064 336.400,56.230 336.805,56.682 337.300 M38.990 372.200 C 38.990 388.700,39.039 395.508,39.100 387.330 C 39.160 379.151,39.160 365.651,39.100 357.330 C 39.039 349.008,38.990 355.700,38.990 372.200 M378.457 404.457 C 378.175 404.909,378.032 405.366,378.140 405.473 C 378.247 405.581,378.544 405.278,378.800 404.800 C 379.405 403.670,379.124 403.390,378.457 404.457 M60.000 404.413 C 60.000 404.639,60.269 404.928,60.598 405.054 C 60.926 405.181,61.112 405.419,61.010 405.584 C 60.818 405.894,62.144 407.237,63.200 407.802 C 63.530 407.979,63.327 407.601,62.749 406.962 C 62.171 406.323,61.489 405.395,61.235 404.900 C 60.760 403.976,60.000 403.676,60.000 404.413 M40.401 409.700 C 40.403 410.238,41.867 412.800,42.173 412.800 C 42.275 412.800,42.170 412.260,41.940 411.600 C 41.710 410.940,41.365 410.400,41.173 410.400 C 40.982 410.400,40.929 410.130,41.055 409.800 C 41.182 409.470,41.086 409.200,40.843 409.200 C 40.599 409.200,40.401 409.425,40.401 409.700 M67.600 409.600 C 67.600 409.820,67.960 410.000,68.400 410.000 C 68.840 410.000,69.200 409.820,69.200 409.600 C 69.200 409.380,68.840 409.200,68.400 409.200 C 67.960 409.200,67.600 409.380,67.600 409.600 M369.600 409.600 C 369.600 409.820,370.050 410.000,370.600 410.000 C 371.150 410.000,371.600 409.820,371.600 409.600 C 371.600 409.380,371.150 409.200,370.600 409.200 C 370.050 409.200,369.600 409.380,369.600 409.600 M397.915 410.210 C 397.792 410.645,397.569 411.360,397.420 411.800 C 397.271 412.240,397.442 412.094,397.800 411.476 C 398.158 410.858,398.381 410.142,398.295 409.886 C 398.210 409.630,398.039 409.776,397.915 410.210 M395.014 415.435 C 394.641 416.004,394.422 416.556,394.528 416.661 C 394.757 416.890,396.400 415.190,396.400 414.725 C 396.400 414.060,395.670 414.434,395.014 415.435 M43.600 415.408 C 43.600 415.891,45.282 418.052,45.493 417.840 C 45.607 417.727,45.227 417.072,44.650 416.386 C 44.072 415.700,43.600 415.260,43.600 415.408 M391.400 419.952 C 389.836 421.631,389.447 422.205,390.284 421.601 C 391.517 420.710,394.230 417.638,393.940 417.461 C 393.863 417.414,392.720 418.535,391.400 419.952 M47.255 420.200 C 47.955 420.970,48.715 421.600,48.943 421.600 C 49.171 421.600,48.746 420.970,48.000 420.200 C 47.254 419.430,46.494 418.800,46.312 418.800 C 46.130 418.800,46.554 419.430,47.255 420.200 M387.100 423.503 C 386.495 423.878,386.000 424.324,386.000 424.493 C 386.000 425.062,386.594 424.792,387.542 423.793 C 388.647 422.628,388.582 422.585,387.100 423.503 M52.800 424.390 C 52.800 424.763,54.841 426.000,55.458 426.000 C 55.622 426.000,55.145 425.550,54.400 425.000 C 52.875 423.875,52.800 423.846,52.800 424.390 M383.424 425.813 C 382.996 426.136,382.827 426.400,383.047 426.400 C 383.267 426.400,383.796 426.136,384.224 425.813 C 384.651 425.490,384.820 425.225,384.600 425.225 C 384.380 425.225,383.851 425.490,383.424 425.813 " stroke="none" fill="#d0d0d0" fill-rule="evenodd"></path><path id="path2" d="M59.300 1.612 C 57.915 2.169,58.234 2.414,59.700 1.920 C 60.415 1.679,61.075 1.418,61.167 1.341 C 61.492 1.066,60.186 1.256,59.300 1.612 M398.049 20.009 C 398.654 21.800,398.995 22.148,398.628 20.600 C 398.471 19.940,398.171 19.224,397.961 19.009 C 397.750 18.794,397.790 19.244,398.049 20.009 M377.200 21.800 C 377.946 22.570,378.647 23.200,378.757 23.200 C 378.867 23.200,378.346 22.570,377.600 21.800 C 376.854 21.030,376.153 20.400,376.043 20.400 C 375.933 20.400,376.454 21.030,377.200 21.800 M58.449 86.600 C 58.416 87.040,58.296 87.850,58.183 88.400 L 57.977 89.400 58.406 88.419 C 58.642 87.879,58.761 87.069,58.672 86.619 C 58.513 85.821,58.507 85.821,58.449 86.600 M48.500 94.676 C 48.885 94.776,49.515 94.776,49.900 94.676 C 50.285 94.575,49.970 94.493,49.200 94.493 C 48.430 94.493,48.115 94.575,48.500 94.676 M214.800 114.400 C 213.401 114.848,215.639 114.848,217.400 114.400 L 218.600 114.095 217.200 114.087 C 216.430 114.083,215.350 114.224,214.800 114.400 M221.800 114.400 C 223.561 114.848,225.799 114.848,224.400 114.400 C 223.850 114.224,222.770 114.083,222.000 114.087 L 220.600 114.095 221.800 114.400 M238.800 117.286 C 239.111 117.594,242.800 118.775,242.800 118.566 C 242.800 118.464,242.342 118.206,241.782 117.993 C 240.444 117.484,238.546 117.034,238.800 117.286 M6.800 118.018 C 6.362 118.315,6.524 118.352,7.400 118.156 C 8.871 117.827,9.190 117.598,8.167 117.606 C 7.745 117.609,7.130 117.795,6.800 118.018 M86.000 117.827 C 87.783 118.527,88.955 118.795,88.578 118.418 C 88.357 118.197,87.551 117.920,86.788 117.804 C 86.024 117.687,85.670 117.698,86.000 117.827 M91.178 133.100 L 89.800 134.600 91.300 133.222 C 92.696 131.938,92.984 131.600,92.678 131.600 C 92.612 131.600,91.937 132.275,91.178 133.100 M3.200 133.400 C 3.946 134.170,4.647 134.800,4.757 134.800 C 4.867 134.800,4.346 134.170,3.600 133.400 C 2.854 132.630,2.153 132.000,2.043 132.000 C 1.933 132.000,2.454 132.630,3.200 133.400 M217.505 133.883 C 218.002 133.979,218.722 133.975,219.105 133.875 C 219.487 133.775,219.080 133.696,218.200 133.701 C 217.320 133.705,217.007 133.787,217.505 133.883 M220.500 133.876 C 220.885 133.976,221.515 133.976,221.900 133.876 C 222.285 133.775,221.970 133.693,221.200 133.693 C 220.430 133.693,220.115 133.775,220.500 133.876 M267.000 135.200 C 267.859 136.080,268.652 136.800,268.762 136.800 C 268.872 136.800,268.259 136.080,267.400 135.200 C 266.541 134.320,265.748 133.600,265.638 133.600 C 265.528 133.600,266.141 134.320,267.000 135.200 M272.400 142.000 C 272.870 142.660,273.344 143.200,273.454 143.200 C 273.564 143.200,273.270 142.660,272.800 142.000 C 272.330 141.340,271.856 140.800,271.746 140.800 C 271.636 140.800,271.930 141.340,272.400 142.000 M159.577 155.061 C 159.355 155.644,159.232 156.297,159.304 156.512 C 159.376 156.727,159.635 156.250,159.880 155.451 C 160.394 153.774,160.174 153.490,159.577 155.061 M262.006 165.833 C 262.009 166.255,262.195 166.870,262.418 167.200 C 262.715 167.638,262.752 167.476,262.556 166.600 C 262.227 165.129,261.998 164.810,262.006 165.833 M282.093 166.400 C 282.093 167.170,282.175 167.485,282.276 167.100 C 282.376 166.715,282.376 166.085,282.276 165.700 C 282.175 165.315,282.093 165.630,282.093 166.400 M156.262 170.547 C 156.097 171.178,156.056 171.789,156.171 171.904 C 156.493 172.227,156.887 170.938,156.715 170.123 C 156.603 169.590,156.484 169.701,156.262 170.547 M262.806 171.676 C 262.818 172.681,263.587 173.508,263.594 172.524 C 263.597 172.042,263.420 171.536,263.200 171.400 C 262.980 171.264,262.803 171.388,262.806 171.676 M2.647 179.201 C 1.851 180.082,1.200 180.928,1.200 181.081 C 1.200 181.235,1.335 181.189,1.501 180.980 C 1.667 180.771,2.422 179.925,3.180 179.100 C 3.937 178.275,4.453 177.600,4.325 177.600 C 4.197 177.600,3.442 178.321,2.647 179.201 M90.000 177.725 C 90.000 177.794,90.585 178.379,91.300 179.025 L 92.600 180.200 91.425 178.900 C 90.330 177.688,90.000 177.416,90.000 177.725 M156.012 178.600 C 156.012 179.040,156.187 179.670,156.400 180.000 C 156.721 180.497,156.788 180.462,156.788 179.800 C 156.788 179.360,156.613 178.730,156.400 178.400 C 156.079 177.903,156.012 177.938,156.012 178.600 M263.088 178.933 C 262.610 180.149,262.724 181.173,263.239 180.287 C 263.467 179.896,263.591 179.266,263.515 178.887 C 263.388 178.260,263.351 178.264,263.088 178.933 M156.400 182.953 C 156.400 183.283,156.580 183.664,156.800 183.800 C 157.020 183.936,157.200 183.777,157.200 183.447 C 157.200 183.117,157.020 182.736,156.800 182.600 C 156.580 182.464,156.400 182.623,156.400 182.953 M262.249 184.615 C 262.112 184.973,262.015 185.566,262.034 185.933 C 262.053 186.300,262.227 186.069,262.421 185.420 C 262.798 184.158,262.665 183.533,262.249 184.615 M281.819 185.300 C 281.733 185.575,281.548 186.488,281.408 187.328 C 281.268 188.169,281.060 189.159,280.946 189.528 C 280.772 190.094,280.802 190.105,281.134 189.600 C 281.542 188.978,282.412 184.800,282.133 184.800 C 282.046 184.800,281.905 185.025,281.819 185.300 M6.176 193.770 C 6.604 194.117,7.324 194.385,7.776 194.366 C 8.437 194.338,8.389 194.267,7.531 194.009 C 6.944 193.831,6.224 193.563,5.931 193.413 C 5.639 193.263,5.749 193.424,6.176 193.770 M87.200 193.825 C 86.234 194.191,86.055 194.362,86.624 194.377 C 87.076 194.390,87.796 194.136,88.224 193.813 C 89.135 193.123,89.053 193.124,87.200 193.825 M27.900 194.700 C 38.515 194.759,55.885 194.759,66.500 194.700 C 77.115 194.641,68.430 194.592,47.200 194.592 C 25.970 194.592,17.285 194.641,27.900 194.700 M189.970 206.932 C 190.989 208.054,191.208 208.193,191.187 207.700 C 191.181 207.535,190.686 207.054,190.087 206.632 L 189.000 205.864 189.970 206.932 M168.791 211.588 C 169.257 212.241,169.842 212.902,170.091 213.056 C 170.341 213.211,170.041 212.676,169.425 211.868 C 168.088 210.115,167.584 209.892,168.791 211.588 M265.188 217.100 L 262.600 219.800 265.300 217.212 C 267.808 214.807,268.183 214.400,267.888 214.400 C 267.827 214.400,266.612 215.615,265.188 217.100 M173.800 217.200 C 174.883 218.300,175.860 219.200,175.970 219.200 C 176.080 219.200,175.283 218.300,174.200 217.200 C 173.117 216.100,172.140 215.200,172.030 215.200 C 171.920 215.200,172.717 216.100,173.800 217.200 M233.000 215.814 C 232.000 216.296,231.966 216.351,232.800 216.148 C 233.933 215.871,235.207 215.221,234.600 215.230 C 234.380 215.233,233.660 215.496,233.000 215.814 M206.000 215.941 C 206.330 216.134,207.140 216.409,207.800 216.552 C 208.568 216.718,208.784 216.684,208.400 216.459 C 208.070 216.266,207.260 215.991,206.600 215.848 C 205.832 215.682,205.616 215.716,206.000 215.941 M214.800 217.600 C 214.800 217.820,215.205 217.997,215.700 217.994 C 216.428 217.989,216.485 217.914,216.000 217.600 C 215.224 217.099,214.800 217.099,214.800 217.600 M223.200 217.600 C 222.715 217.914,222.772 217.989,223.500 217.994 C 223.995 217.997,224.400 217.820,224.400 217.600 C 224.400 217.099,223.976 217.099,223.200 217.600 M180.900 225.212 C 179.561 225.751,179.811 226.024,181.200 225.540 C 181.860 225.310,182.400 225.049,182.400 224.961 C 182.400 224.724,181.913 224.805,180.900 225.212 M213.600 237.600 C 214.383 238.106,215.200 238.106,215.200 237.600 C 215.200 237.380,214.705 237.203,214.100 237.206 C 213.243 237.211,213.132 237.298,213.600 237.600 M222.800 237.600 C 222.800 237.820,223.149 238.000,223.576 238.000 C 224.003 238.000,224.464 237.820,224.600 237.600 C 224.740 237.373,224.404 237.200,223.824 237.200 C 223.261 237.200,222.800 237.380,222.800 237.600 M1.265 238.617 C 0.595 240.088,0.723 240.402,1.447 239.065 C 1.786 238.440,1.988 237.854,1.896 237.763 C 1.805 237.671,1.521 238.056,1.265 238.617 M228.800 238.000 C 228.800 238.220,229.070 238.400,229.400 238.400 C 229.730 238.400,230.000 238.220,230.000 238.000 C 230.000 237.780,229.730 237.600,229.400 237.600 C 229.070 237.600,228.800 237.780,228.800 238.000 M197.328 239.739 C 196.408 239.993,195.535 240.324,195.386 240.475 C 195.238 240.626,196.054 240.502,197.200 240.200 C 198.346 239.898,199.384 239.549,199.508 239.425 C 199.813 239.121,199.310 239.193,197.328 239.739 M242.800 240.349 C 243.130 240.546,244.030 240.820,244.800 240.956 C 245.744 241.123,245.940 241.092,245.400 240.861 C 244.163 240.332,242.090 239.923,242.800 240.349 M289.200 245.000 C 290.617 246.430,291.867 247.600,291.977 247.600 C 292.087 247.600,291.017 246.430,289.600 245.000 C 288.183 243.570,286.933 242.400,286.823 242.400 C 286.713 242.400,287.783 243.570,289.200 245.000 M148.000 246.200 C 146.361 247.850,145.110 249.200,145.220 249.200 C 145.330 249.200,146.761 247.850,148.400 246.200 C 150.039 244.550,151.290 243.200,151.180 243.200 C 151.070 243.200,149.639 244.550,148.000 246.200 M182.000 245.200 C 181.230 245.622,180.744 245.974,180.920 245.983 C 181.344 246.005,183.600 244.832,183.600 244.590 C 183.600 244.328,183.577 244.337,182.000 245.200 M0.804 246.200 C 0.805 246.420,1.163 247.140,1.600 247.800 C 2.636 249.364,2.637 248.808,1.601 247.110 C 1.162 246.389,0.804 245.980,0.804 246.200 M8.800 252.500 C 8.800 252.665,26.069 252.800,47.176 252.800 C 68.283 252.800,85.636 252.665,85.738 252.500 C 85.840 252.335,68.571 252.200,47.362 252.200 C 26.153 252.200,8.800 252.335,8.800 252.500 M141.944 253.100 C 140.793 254.489,140.306 255.200,140.504 255.200 C 140.614 255.200,141.186 254.570,141.773 253.800 C 142.863 252.371,142.995 251.832,141.944 253.100 M160.400 260.600 C 159.428 261.590,158.723 262.400,158.833 262.400 C 158.943 262.400,159.828 261.590,160.800 260.600 C 161.772 259.610,162.477 258.800,162.367 258.800 C 162.257 258.800,161.372 259.610,160.400 260.600 M304.481 265.391 C 304.959 266.376,305.419 267.114,305.503 267.030 C 305.684 266.849,304.068 263.600,303.797 263.600 C 303.694 263.600,304.002 264.406,304.481 265.391 M289.730 281.479 C 289.768 282.182,289.940 282.617,290.112 282.446 C 290.284 282.275,290.252 281.700,290.042 281.168 C 289.683 280.259,289.664 280.278,289.730 281.479 M128.446 285.867 C 128.421 286.124,128.284 286.664,128.141 287.067 C 127.940 287.636,127.994 287.697,128.379 287.342 C 128.652 287.091,128.789 286.551,128.684 286.142 C 128.579 285.734,128.472 285.610,128.446 285.867 M8.662 291.900 C 8.560 292.065,25.902 292.200,47.200 292.200 C 68.498 292.200,85.840 292.065,85.738 291.900 C 85.636 291.735,68.294 291.600,47.200 291.600 C 26.106 291.600,8.764 291.735,8.662 291.900 M219.400 301.200 L 128.200 301.403 219.500 301.501 C 280.166 301.567,310.800 301.466,310.800 301.200 C 310.800 300.980,310.755 300.844,310.700 300.899 C 310.645 300.953,269.560 301.089,219.400 301.200 M87.833 309.900 C 87.669 310.065,69.774 310.294,48.067 310.410 L 8.600 310.619 48.080 310.610 C 79.121 310.602,87.667 310.493,88.060 310.100 C 88.335 309.825,88.464 309.600,88.347 309.600 C 88.229 309.600,87.998 309.735,87.833 309.900 M58.990 371.800 C 58.990 387.860,59.039 394.372,59.100 386.271 C 59.160 378.169,59.160 365.029,59.100 357.071 C 59.039 349.112,58.990 355.740,58.990 371.800 M377.178 407.100 L 375.800 408.600 377.300 407.222 C 378.696 405.938,378.984 405.600,378.678 405.600 C 378.612 405.600,377.937 406.275,377.178 407.100 M61.601 406.937 C 62.151 407.562,62.960 408.259,63.400 408.486 C 64.242 408.920,64.218 408.893,62.001 406.997 L 60.603 405.800 61.601 406.937 M398.086 408.661 C 397.839 409.465,397.796 409.960,397.990 409.761 C 398.382 409.361,398.989 407.200,398.710 407.200 C 398.614 407.200,398.332 407.858,398.086 408.661 M381.400 426.214 C 380.740 426.517,380.481 426.772,380.824 426.782 C 381.166 426.792,381.796 426.536,382.224 426.213 C 383.172 425.496,382.969 425.496,381.400 426.214 M58.609 426.761 C 58.824 426.971,59.540 427.271,60.200 427.428 C 61.748 427.795,61.400 427.454,59.609 426.849 C 58.844 426.590,58.394 426.550,58.609 426.761 " stroke="none" fill="#575757" fill-rule="evenodd"></path><path id="path3" d="M391.400 9.200 C 392.483 10.300,393.460 11.200,393.570 11.200 C 393.680 11.200,392.883 10.300,391.800 9.200 C 390.717 8.100,389.740 7.200,389.630 7.200 C 389.520 7.200,390.317 8.100,391.400 9.200 M45.777 10.567 C 45.350 10.879,45.107 11.240,45.236 11.370 C 45.366 11.499,45.798 11.244,46.198 10.802 C 47.048 9.863,46.873 9.766,45.777 10.567 M40.187 21.000 C 40.084 21.330,39.912 21.879,39.805 22.221 C 39.697 22.562,39.766 22.745,39.957 22.627 C 40.148 22.509,40.391 21.959,40.497 21.406 C 40.706 20.313,40.490 20.030,40.187 21.000 M4.465 118.792 C 2.802 119.720,2.507 120.002,3.460 119.751 C 4.137 119.574,6.462 117.999,6.000 118.032 C 5.890 118.040,5.199 118.381,4.465 118.792 M193.000 119.414 C 192.340 119.717,192.081 119.972,192.424 119.982 C 192.766 119.992,193.396 119.736,193.824 119.413 C 194.772 118.696,194.569 118.696,193.000 119.414 M247.599 120.551 C 248.149 120.872,248.674 121.059,248.766 120.967 C 249.014 120.719,248.714 120.530,247.600 120.233 L 246.600 119.967 247.599 120.551 M94.101 127.000 C 94.105 127.880,94.187 128.193,94.283 127.695 C 94.379 127.198,94.375 126.478,94.275 126.095 C 94.175 125.713,94.096 126.120,94.101 127.000 M176.111 129.700 C 175.166 130.922,175.069 131.313,175.815 130.896 C 176.214 130.672,176.582 130.200,176.635 129.845 C 176.748 129.070,176.625 129.035,176.111 129.700 M263.600 131.325 C 263.600 131.394,264.185 131.979,264.900 132.625 L 266.200 133.800 265.025 132.500 C 263.930 131.288,263.600 131.016,263.600 131.325 M90.975 133.700 L 89.800 135.000 91.100 133.825 C 91.815 133.179,92.400 132.594,92.400 132.525 C 92.400 132.216,92.070 132.488,90.975 133.700 M170.926 135.100 C 170.789 135.485,170.583 135.980,170.470 136.200 C 170.356 136.420,170.653 136.257,171.131 135.838 C 172.061 135.022,172.259 134.400,171.587 134.400 C 171.361 134.400,171.063 134.715,170.926 135.100 M9.115 136.472 C 9.990 136.819,84.289 136.808,85.524 136.460 C 86.032 136.317,68.894 136.200,47.439 136.200 C 25.984 136.200,8.738 136.322,9.115 136.472 M188.222 146.775 L 186.644 148.600 188.403 146.914 C 189.370 145.986,190.080 145.165,189.980 145.088 C 189.881 145.012,189.090 145.771,188.222 146.775 M250.600 146.400 C 251.459 147.280,252.252 148.000,252.362 148.000 C 252.472 148.000,251.859 147.280,251.000 146.400 C 250.141 145.520,249.348 144.800,249.238 144.800 C 249.128 144.800,249.741 145.520,250.600 146.400 M160.845 151.300 C 160.448 152.489,160.462 152.534,161.005 151.824 C 161.332 151.396,161.600 150.811,161.600 150.524 C 161.600 149.632,161.297 149.943,160.845 151.300 M156.229 169.029 C 156.081 169.615,156.038 170.172,156.132 170.266 C 156.227 170.360,156.424 169.958,156.571 169.371 C 156.719 168.785,156.762 168.228,156.668 168.134 C 156.573 168.040,156.376 168.442,156.229 169.029 M282.893 172.800 C 282.893 173.570,282.975 173.885,283.076 173.500 C 283.176 173.115,283.176 172.485,283.076 172.100 C 282.975 171.715,282.893 172.030,282.893 172.800 M263.314 175.800 C 263.317 176.900,263.395 177.303,263.487 176.695 C 263.579 176.086,263.577 175.186,263.482 174.695 C 263.387 174.203,263.311 174.700,263.314 175.800 M28.530 175.900 C 39.052 175.959,56.152 175.959,66.530 175.900 C 76.909 175.841,68.300 175.792,47.400 175.792 C 26.500 175.792,18.009 175.841,28.530 175.900 M282.893 177.600 C 282.893 178.370,282.975 178.685,283.076 178.300 C 283.176 177.915,283.176 177.285,283.076 176.900 C 282.975 176.515,282.893 176.830,282.893 177.600 M94.101 185.000 C 94.105 185.880,94.187 186.193,94.283 185.695 C 94.379 185.198,94.375 184.478,94.275 184.095 C 94.175 183.713,94.096 184.120,94.101 185.000 M90.962 192.058 C 90.204 192.912,90.205 192.914,91.100 192.444 C 91.595 192.184,92.000 191.798,92.000 191.586 C 92.000 191.018,91.809 191.105,90.962 192.058 M186.400 203.325 C 186.400 203.394,186.985 203.979,187.700 204.625 L 189.000 205.800 187.825 204.500 C 186.730 203.288,186.400 203.016,186.400 203.325 M251.600 203.724 C 250.594 204.561,249.043 206.400,249.344 206.400 C 249.671 206.400,252.400 203.733,252.400 203.413 C 252.400 203.112,252.281 203.158,251.600 203.724 M170.347 213.637 C 170.592 213.987,170.700 214.366,170.587 214.480 C 170.473 214.593,170.659 214.917,171.000 215.200 C 172.097 216.111,172.076 215.329,170.971 214.146 C 170.382 213.516,170.101 213.287,170.347 213.637 M266.001 216.598 C 265.486 217.148,265.139 217.664,265.232 217.746 C 265.324 217.828,265.819 217.378,266.330 216.747 C 267.476 215.335,267.274 215.244,266.001 216.598 M216.715 217.672 C 217.092 217.821,218.390 217.944,219.600 217.944 C 220.810 217.944,222.108 217.821,222.485 217.672 C 222.862 217.522,221.564 217.400,219.600 217.400 C 217.636 217.400,216.338 217.522,216.715 217.672 M175.603 219.486 C 175.604 219.659,176.173 220.123,176.867 220.518 C 177.910 221.112,178.036 221.126,177.597 220.596 C 176.941 219.806,175.599 219.059,175.603 219.486 M216.200 237.600 C 216.336 237.820,217.596 238.000,219.000 238.000 C 220.404 238.000,221.664 237.820,221.800 237.600 C 221.957 237.347,220.930 237.200,219.000 237.200 C 217.070 237.200,216.043 237.347,216.200 237.600 M227.600 238.000 C 227.600 238.220,227.870 238.400,228.200 238.400 C 228.530 238.400,228.800 238.220,228.800 238.000 C 228.800 237.780,228.530 237.600,228.200 237.600 C 227.870 237.600,227.600 237.780,227.600 238.000 M285.200 240.917 C 285.530 241.203,286.047 241.698,286.349 242.018 C 286.819 242.516,286.835 242.477,286.460 241.747 C 286.219 241.278,285.702 240.783,285.311 240.646 C 284.692 240.430,284.678 240.465,285.200 240.917 M94.109 243.200 C 94.109 244.190,94.187 244.595,94.282 244.100 C 94.378 243.605,94.378 242.795,94.282 242.300 C 94.187 241.805,94.109 242.210,94.109 243.200 M252.800 243.831 C 252.800 244.101,254.878 244.856,255.076 244.657 C 255.167 244.567,254.692 244.301,254.020 244.067 C 253.349 243.833,252.800 243.727,252.800 243.831 M289.669 244.902 C 290.257 245.396,291.225 246.340,291.819 247.000 C 292.413 247.660,292.662 247.840,292.371 247.400 C 291.466 246.031,289.463 244.000,289.022 244.002 C 288.790 244.003,289.081 244.408,289.669 244.902 M175.000 249.200 C 173.436 250.236,173.992 250.237,175.690 249.201 C 176.411 248.762,176.820 248.404,176.600 248.404 C 176.380 248.405,175.660 248.763,175.000 249.200 M280.848 264.200 C 281.204 264.640,281.595 265.270,281.716 265.600 C 281.903 266.109,281.942 266.104,281.968 265.562 C 281.986 265.211,281.595 264.581,281.100 264.162 C 280.208 263.406,280.206 263.407,280.848 264.200 M132.900 267.700 C 132.470 268.875,132.480 268.926,133.012 268.224 C 133.521 267.552,133.821 266.400,133.488 266.400 C 133.426 266.400,133.161 266.985,132.900 267.700 M310.893 289.600 C 310.893 290.370,310.975 290.685,311.076 290.300 C 311.176 289.915,311.176 289.285,311.076 288.900 C 310.975 288.515,310.893 288.830,310.893 289.600 M128.161 295.200 C 128.161 298.610,128.222 300.005,128.297 298.300 C 128.372 296.595,128.372 293.805,128.297 292.100 C 128.222 290.395,128.161 291.790,128.161 295.200 M94.109 301.200 C 94.109 302.190,94.187 302.595,94.282 302.100 C 94.378 301.605,94.378 300.795,94.282 300.300 C 94.187 299.805,94.109 300.210,94.109 301.200 M44.412 334.784 C 44.088 334.989,43.921 335.254,44.041 335.374 C 44.160 335.494,44.605 335.329,45.029 335.009 C 45.873 334.371,45.360 334.185,44.412 334.784 M390.788 420.300 L 388.200 423.000 390.900 420.412 C 393.408 418.007,393.783 417.600,393.488 417.600 C 393.427 417.600,392.212 418.815,390.788 420.300 " stroke="none" fill="#7c7c7c" fill-rule="evenodd"></path><path id="path4" d="M39.390 56.800 C 39.390 73.190,39.439 79.895,39.500 71.700 C 39.560 63.505,39.560 50.095,39.500 41.900 C 39.439 33.705,39.390 40.410,39.390 56.800 M399.798 214.400 C 399.798 317.250,399.844 359.325,399.900 307.900 C 399.956 256.475,399.956 172.325,399.900 120.900 C 399.844 69.475,399.798 111.550,399.798 214.400 M58.990 57.600 C 58.990 73.330,59.039 79.765,59.100 71.900 C 59.160 64.035,59.160 51.165,59.100 43.300 C 59.039 35.435,58.990 41.870,58.990 57.600 M28.530 117.500 C 39.052 117.559,56.152 117.559,66.530 117.500 C 76.909 117.441,68.300 117.392,47.400 117.392 C 26.500 117.392,18.009 117.441,28.530 117.500 M28.300 136.300 C 38.695 136.359,55.705 136.359,66.100 136.300 C 76.495 136.241,67.990 136.192,47.200 136.192 C 26.410 136.192,17.905 136.241,28.300 136.300 M187.600 147.000 C 186.628 147.990,186.006 148.783,186.217 148.762 C 186.589 148.726,189.873 145.200,189.535 145.200 C 189.442 145.200,188.572 146.010,187.600 147.000 M282.893 175.200 C 282.893 175.970,282.975 176.285,283.076 175.900 C 283.176 175.515,283.176 174.885,283.076 174.500 C 282.975 174.115,282.893 174.430,282.893 175.200 M274.038 256.900 C 274.132 256.955,274.927 257.630,275.804 258.400 L 277.400 259.800 276.022 258.300 C 275.263 257.475,274.468 256.800,274.255 256.800 C 274.041 256.800,273.944 256.845,274.038 256.900 M183.900 282.700 C 203.315 282.757,235.085 282.757,254.500 282.700 C 273.915 282.643,258.030 282.596,219.200 282.596 C 180.370 282.596,164.485 282.643,183.900 282.700 M310.955 295.800 C 310.956 298.660,311.020 299.778,311.097 298.283 C 311.174 296.789,311.174 294.449,311.096 293.083 C 311.018 291.718,310.955 292.940,310.955 295.800 M39.390 372.000 C 39.390 387.950,39.439 394.475,39.500 386.500 C 39.560 378.525,39.560 365.475,39.500 357.500 C 39.439 349.525,39.390 356.050,39.390 372.000 " stroke="none" fill="#747474" fill-rule="evenodd"></path></g></svg>