<?xml version="1.0" standalone="no"?>
<!DOCTYPE svg PUBLIC "-//W3C//DTD SVG 20010904//EN"
 "http://www.w3.org/TR/2001/REC-SVG-20010904/DTD/svg10.dtd">
<svg version="1.0" xmlns="http://www.w3.org/2000/svg"
 width="512.000000pt" height="512.000000pt" viewBox="0 0 512.000000 512.000000"
 preserveAspectRatio="xMidYMid meet">

<g transform="translate(0.000000,512.000000) scale(0.100000,-0.100000)"
fill="#000000" stroke="none">
<path d="M900 4723 c-32 -13 -491 -345 -500 -363 -28 -53 -20 -61 236 -243
261 -185 264 -187 289 -187 48 0 83 74 53 112 -7 8 -75 59 -150 112 -76 53
-138 99 -138 101 0 3 626 5 1391 5 858 0 1388 -4 1384 -9 -3 -5 -58 -47 -123
-92 -149 -105 -172 -126 -172 -159 0 -32 38 -70 69 -70 23 0 492 324 519 358
20 27 14 66 -15 94 -16 14 -129 96 -252 183 -170 120 -231 158 -254 158 -52 0
-85 -63 -54 -104 7 -9 75 -60 152 -115 l140 -99 -698 -3 c-383 -1 -1010 -1
-1393 0 l-696 3 145 102 c79 57 147 110 151 119 13 33 5 63 -20 83 -27 22 -38
24 -64 14z"/>
<path d="M433 3770 c-12 -5 -26 -18 -32 -29 -8 -14 -11 -518 -11 -1659 0
-1600 0 -1640 19 -1663 l19 -24 1650 0 c1608 0 1650 0 1671 19 l21 19 0 1652
0 1652 -21 19 c-21 19 -64 19 -1658 21 -931 1 -1645 -2 -1658 -7z m1165 -654
c2 -575 0 -556 66 -556 25 0 69 30 224 155 l193 154 193 -154 c150 -120 200
-155 222 -155 75 1 74 -7 74 569 l0 511 530 0 530 0 0 -1555 0 -1555 -1550 0
-1550 0 0 1555 0 1555 533 -2 532 -3 3 -519z m830 92 c1 -236 -1 -428 -5 -428
-5 0 -62 43 -128 96 -163 131 -195 154 -216 154 -10 0 -89 -56 -175 -125 -86
-69 -160 -125 -163 -125 -3 0 -5 194 -3 430 l2 430 343 -2 342 -3 3 -427z"/>
<path d="M4293 3762 c-7 -5 -89 -116 -183 -248 -179 -252 -193 -280 -152 -317
25 -22 75 -22 95 1 9 10 60 79 112 152 l95 133 0 -1398 0 -1398 -95 133 c-52
73 -103 142 -112 152 -21 23 -75 23 -96 0 -37 -41 -24 -67 154 -317 93 -132
181 -246 195 -253 20 -11 29 -11 51 0 34 16 373 491 373 522 0 38 -28 66 -66
66 -43 0 -48 -5 -164 -169 l-95 -133 -3 695 c-1 382 -1 1012 0 1399 l3 703 95
-135 c52 -74 102 -142 112 -152 39 -39 118 -8 118 46 0 15 -63 112 -166 257
-91 129 -173 242 -181 252 -17 17 -68 23 -90 9z"/>
</g>
</svg>
